<?xml version="1.0" encoding="UTF-8"?>
<svg width="674px" height="64px" viewBox="0 0 674 64" version="1.1" xmlns="http://www.w3.org/2000/svg" xmlns:xlink="http://www.w3.org/1999/xlink">
    <!-- Generator: Sketch 48.2 (47327) - http://www.bohemiancoding.com/sketch -->
    <title>Women and Color</title>
    <desc>Created with Sketch.</desc>
    <defs></defs>
    <g id="Logo---G-Suite" stroke="none" stroke-width="1" fill="none" fill-rule="evenodd" transform="translate(-2.000000, -2.000000)">
        <path d="M96.181175,4.15160681 C95.4431633,4.23598397 94.7548358,4.39067311 94.1161718,4.61567887 C93.4775079,4.84068463 92.9169112,5.08678098 92.4343651,5.35397532 C91.951819,5.62116966 91.5473379,5.87429734 91.2209097,6.11336596 C90.8944814,6.35243458 90.6886928,6.52821769 90.6035376,6.64072057 C90.4048421,6.83760061 90.1280919,7.13291624 89.7732786,7.52667631 C89.4184653,7.92043639 89.006888,8.47591103 88.5385344,9.19311688 C88.0701809,9.91032274 87.5592573,10.8314262 87.0057486,11.956455 C86.4522398,13.0814838 85.8774509,14.4877487 85.2813645,16.1752919 C84.2878872,19.0159896 83.166694,22.1378977 81.9177511,25.5411098 C80.6688082,28.9443219 79.3773072,32.4599841 78.0432091,36.088202 C76.709111,39.7164199 75.375033,43.3586459 74.0409349,47.0149895 C72.7068369,50.6713331 71.4579127,54.15887 70.2941251,57.477705 L66.5473152,65.9153788 L65.2274163,65.9153788 C63.6378527,61.7808979 62.1618514,57.8785128 60.7993683,54.2081064 C59.4368852,50.5377 58.1240956,47.0009437 56.8609602,43.5977316 C55.5978248,40.1945195 54.3701892,36.8968284 53.1780164,33.7045592 C51.9858437,30.51229 50.7936888,27.3411626 49.6015161,24.191082 C48.664809,26.7786482 47.6997312,29.4786768 46.7062539,32.2912488 C45.7127767,35.1038208 44.7193143,37.9304132 43.725837,40.7711109 C42.7323597,43.6118086 41.7388974,46.4313698 40.7454201,49.2298789 C39.7519428,52.028388 38.7868651,54.7073226 37.8501579,57.2667631 L34.0181933,65.9153788 L32.6131396,65.9153788 C30.7681104,61.1621321 29.0011666,56.6831784 27.3122552,52.4783833 C25.6233438,48.2735882 23.9983232,44.2305766 22.4371447,40.3492273 C20.8759661,36.4678779 19.3573879,32.699088 17.8813645,29.0427444 C16.4053411,25.3864008 14.9435322,21.7301121 13.4958939,18.0737685 C13.0701179,16.9768654 12.6940214,16.0206053 12.3675932,15.2049594 C12.0411649,14.3893136 11.7360301,13.6439932 11.4521794,12.9689759 C11.1683288,12.2939586 10.8773862,11.6400454 10.579343,11.0072167 C10.2812998,10.374388 9.94778032,9.70641222 9.57877448,9.00326922 C9.40846409,8.66576058 9.15300233,8.23684979 8.81238155,7.71652397 C8.47176077,7.19619816 8.01051038,6.68291147 7.42861655,6.17664851 C6.84672272,5.67038556 6.11581826,5.23444344 5.23588124,4.86880908 C4.35594422,4.50317472 3.27732793,4.29223499 2,4.23598355 L2,3.26565106 L28.6960202,3.26565106 L28.6960202,4.15160681 C28.4121696,4.17973253 27.9154384,4.24301445 27.2058117,4.34145447 C26.4961851,4.43989449 25.779473,4.63677157 25.0556538,4.93209163 C24.3318347,5.22741169 23.6931803,5.66335381 23.1396715,6.23993107 C22.5861627,6.81650832 22.3094125,7.58292269 22.3094125,8.53919717 C22.3094125,8.8767058 22.4797203,9.57983825 22.8203411,10.6486156 C23.1609619,11.717393 23.6222123,13.0533446 24.2041061,14.6565106 C24.786,16.2596767 25.4672313,18.0596957 26.2478206,20.0566219 C27.0284099,22.053548 27.8515644,24.1488827 28.7173089,26.3426888 C29.5830534,28.536495 30.4771695,30.7724561 31.3996841,33.0506394 C32.3221988,35.3288228 33.2163149,37.5296273 34.0820594,39.6531192 C34.9478039,41.776611 35.7638622,43.7875698 36.530259,45.6860559 L38.5313961,50.6431892 C38.8436318,49.7712919 39.3332668,48.4001837 40.0003159,46.5298233 C40.6673649,44.6594629 41.4550386,42.4375644 42.3633607,39.864061 C43.2716828,37.2905576 44.258049,34.4499026 45.3224889,31.3420105 C46.3869289,28.2341185 47.4726413,25.0208032 48.5796589,21.7019682 C47.6713368,19.311282 46.7630283,17.0190703 45.8547063,14.8252641 C44.9463842,12.631458 44.052268,10.6908124 43.172331,9.00326922 C42.9168654,8.58138343 42.5904421,8.10325336 42.1930512,7.56886468 C41.7956603,7.03447601 41.2634483,6.52822064 40.5963992,6.05008341 C39.9293502,5.57194617 39.1061957,5.16412935 38.1269109,4.82662071 C37.1476262,4.48911207 35.9483752,4.29223499 34.5291219,4.23598355 L34.5291219,3.26565106 L63.6520531,3.26565106 L63.6520531,4.15160681 C63.4249725,4.17973253 63.0630684,4.2289518 62.5663298,4.2992661 C62.0695911,4.3695804 61.530283,4.46801894 60.9483891,4.59458468 C60.3664953,4.72115042 59.7633217,4.88287088 59.1388503,5.07975092 C58.5143789,5.27663096 57.9395899,5.53678997 57.4144662,5.86023575 C56.8893425,6.18368152 56.4635729,6.56337305 56.1371447,6.9993217 C55.8107164,7.43527036 55.6475047,7.94855705 55.6475047,8.53919717 C55.6475047,8.82045436 55.8249087,9.51655549 56.179722,10.6275214 C56.5345354,11.7384874 57.0099781,13.1377209 57.6060644,14.8252641 C58.2021508,16.5128073 58.8904783,18.4182962 59.6710676,20.5417881 C60.4516569,22.6652799 61.2748114,24.8731158 62.1405559,27.165362 C63.0063004,29.4576082 63.879128,31.7638826 64.7590651,34.0842545 C65.6390021,36.4046264 66.4763489,38.6054309 67.2711308,40.6867342 C68.0659126,42.7680375 68.796817,44.6594638 69.4638661,46.3610698 C70.1309151,48.0626759 70.6631271,49.4337841 71.060518,50.4744358 C71.3443687,49.7150413 71.7417536,48.6322174 72.2526848,47.2259314 C72.7636159,45.8196454 73.3455011,44.2024407 73.9983575,42.374269 C74.651214,40.5460972 75.36083,38.570295 76.1272268,36.4468031 C76.8936235,34.3233113 77.6600088,32.1576633 78.4264056,29.9497943 C79.1928023,27.7419253 79.9378991,25.5622147 80.6617183,23.4105972 C81.3855374,21.2589796 82.0596726,19.2409895 82.684144,17.3565662 C83.10992,16.0346574 83.4363434,14.9026142 83.6634239,13.9604026 C83.8905044,13.0181909 84.0608122,12.2236513 84.1743525,11.5767597 C84.2878928,10.9298682 84.3517582,10.3954875 84.3659507,9.97360171 C84.3801433,9.55171591 84.3872394,9.20014968 84.3872394,8.91889249 C84.3872394,8.07512089 84.1388738,7.36495712 83.6421352,6.78837986 C83.1453965,6.2118026 82.5209345,5.74773519 81.7687303,5.39616369 C81.016526,5.04459219 80.2075638,4.77037054 79.3418193,4.5734905 C78.4760748,4.37661046 77.6884011,4.23598397 76.9787745,4.15160681 L76.9787745,3.26565106 L96.181175,3.26565106 L96.181175,4.15160681 Z M136.62969,44.4836874 C136.62969,47.436888 136.083286,50.2212925 134.990461,52.8369844 C133.897636,55.4526764 132.407443,57.7378568 130.519836,59.6925944 C128.632229,61.6473319 126.411131,63.1871919 123.856475,64.3122207 C121.301819,65.4372495 118.576894,65.9997555 115.681617,65.9997555 C114.148824,65.9997555 112.559284,65.8099097 110.91295,65.4302125 C109.266616,65.0505153 107.662884,64.4669154 106.101706,63.6793952 C104.540527,62.891875 103.064526,61.9145209 101.673658,60.7473036 C100.282789,59.5800862 99.0622499,58.1949153 98.0120025,56.5917492 C96.9617551,54.9885832 96.1315044,53.1815328 95.5212255,51.1705439 C94.9109466,49.1595549 94.6058117,46.930625 94.6058117,44.4836874 C94.6058117,41.7554926 95.1096391,39.1328085 96.1173089,36.6155566 C97.1249787,34.0983047 98.5513068,31.8764061 100.396336,29.9497943 C102.241365,28.0231825 104.476656,26.4833225 107.102274,25.330168 C109.727893,24.1770134 112.658607,23.6004448 115.894504,23.6004448 C118.27885,23.6004448 120.705736,24.0293556 123.175237,24.8871901 C125.644738,25.7450245 127.872932,27.0387882 129.859886,28.76852 C131.846841,30.4982518 133.471861,32.670931 134.734997,35.286623 C135.998132,37.9023149 136.62969,40.9679724 136.62969,44.4836874 Z M126.666582,44.3993107 C126.666582,43.0492761 126.588525,41.6289486 126.432407,40.1382854 C126.276289,38.6476223 126.013731,37.1851068 125.644725,35.7506951 C125.275719,34.3162833 124.800277,32.9451751 124.218383,31.6373291 C123.636489,30.3294831 122.926873,29.1833772 122.089514,28.198977 C121.252154,27.2145768 120.272884,26.4270685 119.151674,25.8364284 C118.030464,25.2457883 116.760251,24.9504726 115.340998,24.9504726 C113.609509,24.9504726 112.076739,25.5200099 110.742641,26.6591016 C109.408542,27.7981932 108.280253,29.2958653 107.357738,31.1521628 C106.435224,33.0084604 105.732704,35.124889 105.250158,37.5015124 C104.767612,39.8781357 104.526342,42.28988 104.526342,44.7368176 C104.526342,47.3243838 104.732131,49.8134727 105.143714,52.2041589 C105.555298,54.5948451 106.215241,56.7112737 107.123563,58.5535084 C108.031885,60.395743 109.209847,61.8723212 110.657486,62.9832871 C112.105124,64.0942531 113.850779,64.6497277 115.894504,64.6497277 C117.228602,64.6497277 118.420757,64.3333181 119.471004,63.7004894 C120.521252,63.0676607 121.443753,62.2309331 122.238534,61.1902814 C123.033316,60.1496298 123.714548,58.940242 124.282249,57.5620817 C124.84995,56.1839215 125.311201,54.7424999 125.666014,53.2377739 C126.020827,51.7330479 126.276289,50.2213131 126.432407,48.7025243 C126.588525,47.1837354 126.666582,45.7493452 126.666582,44.3993107 Z M188.276058,65.4934951 L188.276058,64.5231626 C189.837237,64.4387854 191.064872,64.1997204 191.959002,63.8059603 C192.853131,63.4122002 193.30019,62.7653184 193.30019,61.8652953 L193.30019,40.433604 C193.30019,38.830438 193.165362,37.3819851 192.895704,36.088202 C192.626046,34.7944189 192.200277,33.6905009 191.618383,32.776415 C191.036489,31.8623292 190.2772,31.1521654 189.340493,30.6459024 C188.403786,30.1396395 187.254208,29.8865118 185.891725,29.8865118 C184.188621,29.8865118 182.733908,30.3083913 181.527543,31.1521628 C180.321177,31.9959344 179.192888,33.0506331 178.142641,34.3162905 L178.142641,62.1184256 C178.142641,62.5403114 178.29166,62.8989089 178.589703,63.194229 C178.887746,63.489549 179.270939,63.7356454 179.739292,63.9325254 C180.207646,64.1294055 180.71857,64.2770633 181.272078,64.3755033 C181.825587,64.4739433 182.357799,64.5653505 182.86873,64.6497277 L182.86873,65.4934951 L163.836639,65.4934951 L163.836639,64.5231626 C165.426203,64.4387854 166.696416,64.1997204 167.647315,63.8059603 C168.598215,63.4122002 169.073658,62.7653184 169.073658,61.8652953 L169.073658,40.3492273 C169.073658,38.7460612 168.945927,37.2976084 168.690461,36.0038253 C168.434996,34.7100422 168.016322,33.6131555 167.434428,32.7131325 C166.852534,31.8131095 166.086149,31.1170083 165.13525,30.6248082 C164.18435,30.1326081 163.027676,29.8865118 161.665193,29.8865118 C160.842026,29.8865118 160.089833,29.9708877 159.408591,30.139642 C158.72735,30.3083963 158.081599,30.5544927 157.47132,30.8779385 C156.861041,31.2013842 156.264964,31.6021697 155.68307,32.080307 C155.101176,32.5584442 154.512195,33.1209502 153.916109,33.7678417 L153.916109,62.0340488 C154.029649,62.5965632 154.228341,63.0325053 154.512192,63.3418883 C154.796043,63.6512712 155.150851,63.8833049 155.576627,64.0379963 C156.002403,64.1926878 156.477845,64.3122203 157.002969,64.3965975 C157.528093,64.4809746 158.088689,64.5653505 158.684776,64.6497277 L158.684776,65.4934951 L139.950726,65.4934951 L139.950726,64.6497277 C141.31321,64.5090991 142.484076,64.1786268 143.463361,63.658301 C144.442645,63.1379752 144.93228,62.4278114 144.93228,61.5277884 L144.93228,32.8396976 C144.93228,32.3896861 144.882607,32.0381199 144.78326,31.7849884 C144.683912,31.5318569 144.435546,31.2787292 144.038155,31.0255977 C143.527224,30.7162148 142.909858,30.3857426 142.186039,30.0341711 C141.46222,29.6825996 140.745508,29.3521273 140.035881,29.0427444 L140.035881,28.4942956 L153.277448,23.5160681 L153.830954,23.5160681 L153.830954,32.8396976 L154.001263,32.9240743 C154.59735,31.8834227 155.349543,30.8146614 156.257865,29.7177583 C157.166187,28.6208552 158.216419,27.6224072 159.408591,26.7223841 C160.600764,25.8223611 161.913554,25.0770407 163.346999,24.4864006 C164.780445,23.8957605 166.30612,23.6004448 167.924068,23.6004448 C169.286551,23.6004448 170.542572,23.8324785 171.692167,24.2965529 C172.841762,24.7606273 173.84232,25.4286031 174.693872,26.3005004 C175.545424,27.1723978 176.240848,28.2130338 176.780164,29.4224397 C177.31948,30.6318457 177.688481,31.9959226 177.887176,33.5147115 L178.142641,33.5147115 C178.653572,32.4740599 179.363188,31.3701419 180.27151,30.2029246 C181.179832,29.0357072 182.244256,27.9599145 183.464814,26.9755143 C184.685371,25.9911141 186.033642,25.1825118 187.509665,24.5496831 C188.985689,23.9168544 190.546844,23.6004448 192.193178,23.6004448 C193.867896,23.6004448 195.343898,23.9238858 196.621226,24.5707773 C197.898553,25.2176689 198.962977,26.1176784 199.814529,27.2708329 C200.666081,28.4239874 201.304736,29.7880644 201.730512,31.3631047 C202.156288,32.938145 202.369172,34.6678508 202.369172,36.5522741 L202.369172,62.1184256 C202.369172,62.5403114 202.546576,62.9059402 202.90139,63.2153231 C203.256203,63.5247061 203.703261,63.7778337 204.242577,63.9747138 C204.781894,64.1715938 205.349586,64.326283 205.945673,64.4387858 C206.541759,64.5512887 207.09526,64.6497273 207.606191,64.7341044 L207.606191,65.4934951 L188.276058,65.4934951 Z M246.69223,51.7400868 C246.465149,53.0619957 245.94713,54.5385738 245.138155,56.1698656 C244.329181,57.8011573 243.22218,59.333986 241.817119,60.7683978 C240.412059,62.2028095 238.70898,63.405166 236.707833,64.3755033 C234.706686,65.3458406 232.400434,65.831002 229.789008,65.831002 C226.666651,65.831002 223.856572,65.2474021 221.358686,64.0801847 C218.8608,62.9129673 216.739049,61.323888 214.993367,59.312899 C213.247686,57.3019101 211.906511,54.960479 210.969804,52.2885356 C210.033097,49.6165922 209.56475,46.7618745 209.56475,43.7242968 C209.56475,41.2773591 210.004712,38.8515522 210.884649,36.4468031 C211.764586,34.0420541 213.020607,31.8904688 214.652748,29.9919827 C216.284889,28.0934966 218.271814,26.5536366 220.613582,25.3723563 C222.95535,24.1910761 225.602217,23.6004448 228.554264,23.6004448 C230.910224,23.6004448 233.102938,23.8816978 235.13247,24.4442122 C237.162002,25.0067266 238.950234,25.8786108 240.49722,27.0598911 C242.044207,28.2411713 243.293131,29.7318121 244.24403,31.5318582 C245.19493,33.3319042 245.755527,35.4694269 245.925837,37.9444902 L218.633733,37.9444902 C218.633733,38.366376 218.619541,38.8445061 218.591156,39.3788948 C218.562771,39.9132834 218.548579,40.4336015 218.548579,40.9398644 C218.548579,43.4149278 218.889194,45.7422962 219.570436,47.9220395 C220.251677,50.1017827 221.238044,52.0072717 222.529564,53.6385634 C223.821085,55.2698552 225.417721,56.5565876 227.31952,57.4987992 C229.221319,58.4410108 231.406936,58.9121095 233.876437,58.9121095 C235.23892,58.9121095 236.572998,58.7292951 237.878711,58.3636607 C239.184424,57.9980264 240.369483,57.491771 241.433923,56.8448795 C242.498363,56.1979879 243.42796,55.4245422 244.222742,54.5245192 C245.017523,53.6244961 245.585216,52.6401107 245.925837,51.5713334 L246.69223,51.7400868 Z M235.4518,32.7553209 C235.4518,31.7709207 235.288589,30.8146605 234.96216,29.8865118 C234.635732,28.958363 234.167386,28.1356981 233.557107,27.4184922 C232.946828,26.7012864 232.194635,26.1317491 231.300505,25.7098633 C230.406376,25.2879775 229.405817,25.0770377 228.2988,25.0770377 C226.851161,25.0770377 225.552564,25.5411052 224.402969,26.4692539 C223.253374,27.3974027 222.274104,28.4942893 221.46513,29.7599467 C220.656155,31.0256041 220.024597,32.3123365 219.570436,33.6201824 C219.116275,34.9280284 218.860813,35.9616331 218.804043,36.7210275 C219.939446,36.7210275 220.968389,36.7139962 221.890903,36.6999333 C222.813418,36.6858705 223.721726,36.6647765 224.615856,36.6366508 C225.509986,36.6085251 226.432486,36.5803998 227.383386,36.5522741 C228.334286,36.5241483 229.419998,36.496023 230.640556,36.4678973 C231.265027,36.4678973 231.903682,36.4257094 232.556538,36.3413322 C233.209395,36.2569551 233.79128,36.1022659 234.302211,35.8772602 C234.699602,35.4835001 234.990544,35.0616206 235.175047,34.6116091 C235.35955,34.1615976 235.4518,33.542841 235.4518,32.7553209 Z M272.834744,65.4934951 L272.834744,64.5231626 C274.424308,64.4387854 275.69452,64.1997204 276.64542,63.8059603 C277.59632,63.4122002 278.071762,62.7653184 278.071762,61.8652953 L278.071762,40.7711109 C278.071762,39.2523221 277.936935,37.8319945 277.667277,36.5100857 C277.397619,35.1881769 276.950561,34.042071 276.32609,33.0717336 C275.701618,32.1013963 274.899752,31.3420133 273.920467,30.7935617 C272.941183,30.2451102 271.741932,29.9708885 270.322678,29.9708885 C268.70473,29.9708885 267.285498,30.2943294 266.06494,30.941221 C264.844382,31.5881126 263.623843,32.5584353 262.403285,33.8522185 L262.403285,62.0340488 C262.516825,62.5965632 262.715518,63.0325053 262.999368,63.3418883 C263.283219,63.6512712 263.630931,63.8833049 264.042514,64.0379963 C264.454098,64.1926878 264.915348,64.3122203 265.426279,64.3965975 C265.93721,64.4809746 266.490711,64.5653505 267.086797,64.6497277 L267.086797,65.4934951 L248.437903,65.4934951 L248.437903,64.6497277 C249.800386,64.5090991 250.971252,64.1786268 251.950537,63.658301 C252.929822,63.1379752 253.419457,62.4278114 253.419457,61.5277884 L253.419457,32.8396976 C253.419457,32.3896861 253.369784,32.0381199 253.270436,31.7849884 C253.171088,31.5318569 252.922723,31.2787292 252.525332,31.0255977 C252.0144,30.7162148 251.397035,30.3857426 250.673215,30.0341711 C249.949396,29.6825996 249.232684,29.3521273 248.523057,29.0427444 L248.523057,28.4942956 L261.764624,23.5160681 L262.31813,23.5160681 L262.31813,32.9240743 L262.48844,33.0084511 C263.141296,32.0240509 263.943162,30.9763835 264.894062,29.8654176 C265.844962,28.7544517 266.930674,27.7349096 268.151232,26.8067609 C269.37179,25.8786121 270.698772,25.1121977 272.132217,24.5074948 C273.565663,23.9027918 275.091337,23.6004448 276.709286,23.6004448 C278.41239,23.6004448 279.90968,23.9309171 281.2012,24.5918715 C282.492721,25.2528259 283.578433,26.1668981 284.45837,27.3341155 C285.338307,28.5013328 286.005346,29.9005664 286.459507,31.5318582 C286.913668,33.1631499 287.140745,34.9491063 287.140745,36.889781 L287.140745,62.1184256 C287.140745,62.5403114 287.325246,62.9059402 287.694251,63.2153231 C288.063257,63.5247061 288.517411,63.7778337 289.056728,63.9747138 C289.596044,64.1715938 290.170833,64.326283 290.781112,64.4387858 C291.391391,64.5512887 291.951987,64.6497273 292.462919,64.7341044 L292.462919,65.4934951 L272.834744,65.4934951 Z M352.880227,56.2542423 C352.823457,57.3511454 352.546707,58.469126 352.049968,59.6082176 C351.55323,60.7473093 350.893287,61.7738826 350.07012,62.6879685 C349.246953,63.6020544 348.267683,64.3544062 347.13228,64.9450463 C345.996878,65.5356864 344.747954,65.831002 343.385471,65.831002 C342.306838,65.831002 341.270799,65.6692816 340.277322,65.3458358 C339.283844,65.02239 338.40392,64.5301973 337.637524,63.8692429 C336.871127,63.2082884 336.246665,62.3715608 335.764119,61.3590349 C335.281573,60.346509 335.026111,59.1371212 334.997726,57.7308352 L334.827416,57.6464585 C334.373255,58.5746072 333.770082,59.5168047 333.017877,60.4730792 C332.265673,61.4293536 331.364461,62.3012379 330.314214,63.088758 C329.263966,63.8762782 328.078907,64.5161287 326.759002,65.0083288 C325.439096,65.5005289 323.998576,65.7466253 322.437397,65.7466253 C321.44392,65.7466253 320.450458,65.5849048 319.45698,65.261459 C318.463503,64.9380133 317.569387,64.4317579 316.774605,63.7426778 C315.979823,63.0535976 315.334073,62.1746821 314.837334,61.1059047 C314.340596,60.0371274 314.09223,58.7574263 314.09223,57.2667631 C314.09223,56.4511173 314.262538,55.6354836 314.603159,54.8198378 C314.943779,54.0041919 315.419222,53.2166835 316.029501,52.4572891 C316.63978,51.6978947 317.356492,50.9666369 318.179659,50.2634939 C319.002826,49.5603509 319.896942,48.9275317 320.862034,48.3650173 C322.820604,47.2399885 324.537874,46.2696658 326.013898,45.4540199 C327.489921,44.638374 328.788518,43.9352416 329.909728,43.3446014 C331.030938,42.7539613 331.996016,42.2406746 332.804991,41.804726 C333.613965,41.3687773 334.316485,40.9679918 334.912571,40.6023575 L334.912571,32.8396976 C334.855801,32.3615604 334.678397,31.8271797 334.380354,31.2365396 C334.082311,30.6458995 333.670733,30.0833935 333.14561,29.5490048 C332.620486,29.0146162 331.953447,28.5646114 331.144473,28.198977 C330.335498,27.8333427 329.391709,27.6224029 328.313076,27.5661515 C327.376369,27.6224029 326.553215,27.8052174 325.843588,28.1146003 C325.133961,28.4239832 324.530788,28.7896121 324.034049,29.2114979 C323.537311,29.6333837 323.161214,30.0693258 322.905749,30.5193373 C322.650283,30.9693488 322.522552,31.363103 322.522552,31.7006116 L322.522552,36.9741577 C322.522552,37.3960435 322.373533,37.8038604 322.07549,38.1976204 C321.777446,38.5913805 321.394254,38.9429467 320.9259,39.2523297 C320.457547,39.5617126 319.932431,39.8078089 319.350537,39.9906261 C318.768643,40.1734433 318.179662,40.2648505 317.583575,40.2648505 C317.015874,40.2648505 316.483662,40.166412 315.986924,39.9695319 C315.490185,39.7726519 315.043127,39.5054616 314.645736,39.1679529 C314.248345,38.8304443 313.936114,38.4366901 313.709033,37.9866786 C313.481953,37.5366671 313.368414,37.058537 313.368414,36.5522741 C313.368414,35.7647539 313.52453,35.0686528 313.836766,34.4639498 C314.149001,33.8592468 314.546386,33.3108035 315.028932,32.8186034 C315.511479,32.3264033 316.050787,31.8763986 316.646873,31.4685756 C317.242959,31.0607527 317.839037,30.6740298 318.435123,30.3083955 C319.882762,29.4646239 321.422628,28.6489902 323.054769,27.8614701 C324.686911,27.0739499 326.27645,26.3637862 327.823437,25.7309575 C329.370423,25.0981288 330.803847,24.5918734 332.123752,24.2121762 C333.443658,23.832479 334.486793,23.6285706 335.25319,23.6004448 C337.041449,23.6566963 338.638085,24.0715444 340.043146,24.8450017 C341.448207,25.618459 342.562304,26.8067528 343.385471,28.4099189 C343.499011,28.6067989 343.584165,28.8950832 343.640935,29.2747804 C343.697705,29.6544777 343.747378,30.0763571 343.789956,30.5404315 C343.832533,31.0045059 343.860918,31.4896673 343.875111,31.9959302 C343.889303,32.5021932 343.896399,33.0084485 343.896399,33.5147115 C343.896399,35.5678891 343.882207,37.3679081 343.853822,38.9148227 C343.825437,40.4617373 343.797052,41.9523781 343.768667,43.3867898 C343.740282,44.8212015 343.711897,46.283717 343.683512,47.7743802 C343.655127,49.2650433 343.640935,50.9947491 343.640935,52.9635495 C343.640935,54.2573326 343.768666,55.3190626 344.024131,56.1487714 C344.279597,56.9784801 344.613116,57.6323933 345.0247,58.1105305 C345.436283,58.5886678 345.90463,58.91914 346.429754,59.1019572 C346.954877,59.2847744 347.501282,59.3761816 348.068983,59.3761816 C349.431466,59.3761816 350.417832,59.0738346 351.028111,58.4691317 C351.63839,57.8644287 352.057064,57.1261396 352.284144,56.2542423 L352.880227,56.2542423 Z M334.912571,41.9101969 C333.919094,42.6133399 332.734035,43.330535 331.357359,44.0618037 C329.980684,44.7930724 328.653702,45.6227687 327.376374,46.5509175 C326.099046,47.4790662 325.013334,48.5337649 324.119204,49.7150451 C323.225074,50.8963254 322.778016,52.3025903 322.778016,53.933882 C322.778016,54.6651507 322.91994,55.3612518 323.20379,56.0222063 C323.487641,56.6831607 323.870834,57.2667606 324.35338,57.7730236 C324.835926,58.2792865 325.396522,58.6871033 326.035186,58.9964863 C326.67385,59.3058692 327.362178,59.4605583 328.10019,59.4605583 C329.263977,59.4605583 330.406459,59.2988379 331.527669,58.9753921 C332.648879,58.6519463 333.521707,58.1527223 334.146178,57.477705 C334.458414,57.1120706 334.664202,56.7394104 334.76355,56.3597132 C334.862898,55.980016 334.912571,55.5651679 334.912571,55.1151563 L334.912571,41.9101969 Z M377.277069,65.4934951 L377.277069,64.5231626 C378.866633,64.4387854 380.136845,64.1997204 381.087745,63.8059603 C382.038644,63.4122002 382.514087,62.7653184 382.514087,61.8652953 L382.514087,40.7711109 C382.514087,39.2523221 382.37926,37.8319945 382.109602,36.5100857 C381.839944,35.1881769 381.392886,34.042071 380.768414,33.0717336 C380.143943,32.1013963 379.342077,31.3420133 378.362792,30.7935617 C377.383507,30.2451102 376.184256,29.9708885 374.765003,29.9708885 C373.147054,29.9708885 371.727822,30.2943294 370.507265,30.941221 C369.286707,31.5881126 368.066167,32.5584353 366.84561,33.8522185 L366.84561,62.0340488 C366.95915,62.5965632 367.157842,63.0325053 367.441693,63.3418883 C367.725544,63.6512712 368.073255,63.8833049 368.484839,64.0379963 C368.896422,64.1926878 369.357673,64.3122203 369.868604,64.3965975 C370.379535,64.4809746 370.933036,64.5653505 371.529122,64.6497277 L371.529122,65.4934951 L352.880227,65.4934951 L352.880227,64.6497277 C354.242711,64.5090991 355.413577,64.1786268 356.392862,63.658301 C357.372146,63.1379752 357.861781,62.4278114 357.861781,61.5277884 L357.861781,32.8396976 C357.861781,32.3896861 357.812108,32.0381199 357.712761,31.7849884 C357.613413,31.5318569 357.365047,31.2787292 356.967656,31.0255977 C356.456725,30.7162148 355.839359,30.3857426 355.11554,30.0341711 C354.391721,29.6825996 353.675009,29.3521273 352.965382,29.0427444 L352.965382,28.4942956 L366.206949,23.5160681 L366.760455,23.5160681 L366.760455,32.9240743 L366.930764,33.0084511 C367.583621,32.0240509 368.385487,30.9763835 369.336387,29.8654176 C370.287286,28.7544517 371.372999,27.7349096 372.593557,26.8067609 C373.814114,25.8786121 375.141096,25.1121977 376.574542,24.5074948 C378.007988,23.9027918 379.533662,23.6004448 381.151611,23.6004448 C382.854715,23.6004448 384.352004,23.9309171 385.643525,24.5918715 C386.935045,25.2528259 388.020758,26.1668981 388.900695,27.3341155 C389.780632,28.5013328 390.447671,29.9005664 390.901832,31.5318582 C391.355993,33.1631499 391.58307,34.9491063 391.58307,36.889781 L391.58307,62.1184256 C391.58307,62.5403114 391.76757,62.9059402 392.136576,63.2153231 C392.505582,63.5247061 392.959736,63.7778337 393.499052,63.9747138 C394.038369,64.1715938 394.613158,64.326283 395.223437,64.4387858 C395.833715,64.5512887 396.394312,64.6497273 396.905243,64.7341044 L396.905243,65.4934951 L377.277069,65.4934951 Z M430.030449,65.9997555 L429.51952,65.9997555 L429.51952,57.1823864 L429.434365,57.0980097 C427.816416,59.9949588 425.872069,62.1746694 423.601263,63.6372068 C421.330458,65.0997443 418.506187,65.831002 415.128364,65.831002 C412.999484,65.831002 410.948694,65.3739659 408.975932,64.45988 C407.00317,63.5457941 405.250418,62.2098425 403.717625,60.451985 C402.184831,58.6941275 400.957196,56.5214482 400.034681,53.933882 C399.112166,51.3463158 398.650916,48.3790968 398.650916,45.0321362 C398.650916,42.0226842 399.176032,39.2171857 400.226279,36.6155566 C401.276527,34.0139275 402.752528,31.749841 404.654327,29.8232292 C406.556127,27.8966174 408.848186,26.3778513 411.530575,25.2668854 C414.212964,24.1559195 417.186254,23.6004448 420.450537,23.6004448 C422.210411,23.6004448 423.842528,23.7481026 425.346936,24.0434227 C426.851345,24.3387428 428.242192,24.6832777 429.51952,25.0770377 L429.434365,10.8173691 L422.281364,8.03293674 L422.281364,7.52667631 L437.779533,2.75939064 L438.503348,2.75939064 L438.503348,58.1527189 C438.702044,58.2933475 439.035563,58.4691306 439.503917,58.6800735 C439.97227,58.8910164 440.497386,59.1300814 441.07928,59.3972758 C441.661174,59.6644701 442.271443,59.9316604 442.910107,60.1988548 C443.548771,60.4660491 444.137753,60.6980828 444.677069,60.8949629 L444.677069,61.5277884 L430.030449,65.9997555 Z M429.434365,33.9365952 C428.895049,32.755315 428.242202,31.6373344 427.475805,30.5826199 C426.709409,29.5279054 425.900446,28.5997705 425.048895,27.7981875 C424.197343,26.9966045 423.324515,26.356754 422.430385,25.8786167 C421.536256,25.4004795 420.706005,25.1614145 419.939608,25.1614145 C417.895884,25.1614145 416.150228,25.6887638 414.70259,26.7434783 C413.254952,27.7981928 412.069893,29.1903951 411.147378,30.9201268 C410.224864,32.6498586 409.550729,34.6256608 409.124953,36.8475926 C408.699177,39.0695245 408.486292,41.3617363 408.486292,43.7242968 C408.486292,46.0024801 408.74885,48.210316 409.273973,50.3478707 C409.799097,52.4854254 410.579675,54.383883 411.61573,56.0433004 C412.651785,57.7027179 413.943286,59.0316382 415.490272,60.0301013 C417.037258,61.0285644 418.832586,61.5277884 420.876311,61.5277884 C421.898173,61.5277884 422.877443,61.3520053 423.81415,61.0004338 C424.750857,60.6488623 425.602397,60.1496382 426.368793,59.5027467 C427.13519,58.8558551 427.788037,58.0613155 428.327353,57.1191039 C428.866669,56.1768922 429.23567,55.1151622 429.434365,53.933882 L429.434365,33.9365952 Z M525.914719,23.9379518 C525.091552,21.209757 523.913589,18.6081669 522.380796,16.1331036 C520.848002,13.6580402 519.052674,11.4783296 516.994757,9.59390639 C514.93684,7.70948316 512.651876,6.21884237 510.139798,5.12193929 C507.62772,4.02503622 504.980852,3.47659291 502.199116,3.47659291 C499.58769,3.47659291 497.174995,3.88440973 494.96096,4.7000556 C492.746925,5.51570148 490.745808,6.64774472 488.957549,8.09621929 C487.16929,9.54469387 485.601039,11.2533057 484.252748,13.2221061 C482.904457,15.1909065 481.769072,17.3354605 480.846557,19.6558323 C479.924043,21.9762042 479.228619,24.4090425 478.760265,26.9544202 C478.291912,29.4997978 478.057738,32.0662312 478.057738,34.6537975 C478.057738,38.816404 478.618335,42.7117578 479.739545,46.3399756 C480.860755,49.9681935 482.47868,53.1182269 484.593367,55.7901702 C486.708054,58.4621136 489.269768,60.571511 492.278585,62.1184256 C495.287402,63.6653401 498.679366,64.4387858 502.45458,64.4387858 C504.384764,64.4387858 506.243958,64.1715955 508.032217,63.6372068 C509.820476,63.1028182 511.523555,62.3715604 513.141503,61.4434117 C514.759452,60.5152629 516.256742,59.411345 517.633418,58.1316247 C519.010093,56.8519045 520.244825,55.4737649 521.33765,53.9971646 C522.430475,52.5205643 523.360072,50.9736729 524.126469,49.356444 C524.892865,47.7392151 525.460558,46.1149791 525.829564,44.4836874 L526.893999,44.4836874 L526.638534,64.1012789 L525.5741,64.1012789 C525.205094,63.5950159 524.821901,63.1028232 524.42451,62.624686 C524.02712,62.1465487 523.651023,61.717638 523.29621,61.3379407 C522.941396,60.9582435 522.622069,60.6488652 522.338219,60.4097966 C522.054368,60.170728 521.855675,60.0511955 521.742135,60.0511955 C521.628595,60.0511955 521.117671,60.3605738 520.209349,60.9793396 C519.301027,61.5981054 517.988238,62.2801439 516.270941,63.0254755 C514.553645,63.7708071 512.424797,64.4528455 509.884334,65.0716114 C507.34387,65.6903772 504.384772,65.9997555 501.006949,65.9997555 C495.500246,65.9997555 490.554223,65.2122471 486.16873,63.6372068 C481.783238,62.0621665 478.057754,59.8754246 474.992167,57.0769155 C471.92658,54.2784064 469.577751,50.9314959 467.94561,47.0360837 C466.313468,43.1406715 465.49741,38.8726575 465.49741,34.2319138 C465.49741,33.2193879 465.568372,32.052188 465.710297,30.7302792 C465.852222,29.4083703 466.11478,27.9880428 466.497979,26.4692539 C466.881177,24.950465 467.413389,23.368417 468.09463,21.7230624 C468.775872,20.0777078 469.655796,18.4253466 470.734428,16.7659291 C471.983371,14.7971287 473.516142,12.9197651 475.332786,11.1337818 C477.14943,9.34779864 479.278278,7.77981328 481.719394,6.42977873 C484.160509,5.07974417 486.942204,4.00395153 490.064561,3.20236851 C493.186918,2.4007855 496.678229,2 500.538598,2 C504.058346,2 507.123887,2.32344093 509.735313,2.97033248 C512.346739,3.61722404 514.532356,4.32738781 516.29223,5.10084511 C518.052104,5.8743024 519.393278,6.58446618 520.315793,7.23135773 C521.238307,7.87824929 521.770519,8.20169022 521.912445,8.20169022 C522.025985,8.20169022 522.23887,8.06809505 522.551105,7.80090071 C522.863341,7.53370637 523.218149,7.1962028 523.61554,6.78837986 C524.012931,6.38055692 524.424508,5.92352083 524.850284,5.41725787 C525.27606,4.91099492 525.659253,4.40473955 525.999874,3.8984766 L526.979154,3.8984766 L526.979154,23.853575 L525.914719,23.9379518 Z M574.154896,44.4836874 C574.154896,47.436888 573.608491,50.2212925 572.515666,52.8369844 C571.422841,55.4526764 569.932648,57.7378568 568.045041,59.6925944 C566.157434,61.6473319 563.936336,63.1871919 561.38168,64.3122207 C558.827024,65.4372495 556.102099,65.9997555 553.206822,65.9997555 C551.674029,65.9997555 550.084489,65.8099097 548.438155,65.4302125 C546.791822,65.0505153 545.18809,64.4669154 543.626911,63.6793952 C542.065732,62.891875 540.589731,61.9145209 539.198863,60.7473036 C537.807995,59.5800862 536.587455,58.1949153 535.537208,56.5917492 C534.48696,54.9885832 533.65671,53.1815328 533.046431,51.1705439 C532.436152,49.1595549 532.131017,46.930625 532.131017,44.4836874 C532.131017,41.7554926 532.634844,39.1328085 533.642514,36.6155566 C534.650184,34.0983047 536.076512,31.8764061 537.921541,29.9497943 C539.766571,28.0231825 542.001861,26.4833225 544.627479,25.330168 C547.253098,24.1770134 550.183812,23.6004448 553.419709,23.6004448 C555.804055,23.6004448 558.230942,24.0293556 560.700442,24.8871901 C563.169943,25.7450245 565.398137,27.0387882 567.385092,28.76852 C569.372046,30.4982518 570.997067,32.670931 572.260202,35.286623 C573.523338,37.9023149 574.154896,40.9679724 574.154896,44.4836874 Z M564.191788,44.3993107 C564.191788,43.0492761 564.11373,41.6289486 563.957612,40.1382854 C563.801494,38.6476223 563.538936,37.1851068 563.169931,35.7506951 C562.800925,34.3162833 562.325482,32.9451751 561.743588,31.6373291 C561.161694,30.3294831 560.452078,29.1833772 559.614719,28.198977 C558.777359,27.2145768 557.798089,26.4270685 556.676879,25.8364284 C555.555669,25.2457883 554.285457,24.9504726 552.866203,24.9504726 C551.134714,24.9504726 549.601944,25.5200099 548.267846,26.6591016 C546.933748,27.7981932 545.805458,29.2958653 544.882944,31.1521628 C543.960429,33.0084604 543.257909,35.124889 542.775363,37.5015124 C542.292817,39.8781357 542.051548,42.28988 542.051548,44.7368176 C542.051548,47.3243838 542.257336,49.8134727 542.66892,52.2041589 C543.080503,54.5948451 543.740446,56.7112737 544.648768,58.5535084 C545.55709,60.395743 546.735053,61.8723212 548.182691,62.9832871 C549.630329,64.0942531 551.375985,64.6497277 553.419709,64.6497277 C554.753807,64.6497277 555.945962,64.3333181 556.99621,63.7004894 C558.046457,63.0676607 558.968958,62.2309331 559.76374,61.1902814 C560.558522,60.1496298 561.239753,58.940242 561.807454,57.5620817 C562.375156,56.1839215 562.836406,54.7424999 563.191219,53.2377739 C563.546033,51.7330479 563.801494,50.2213131 563.957612,48.7025243 C564.11373,47.1837354 564.191788,45.7493452 564.191788,44.3993107 Z M575.730259,65.4934951 L575.730259,64.5231626 C577.064357,64.4387854 578.157166,64.3122216 579.008718,64.1434673 C579.86027,63.9747129 580.534405,63.7567419 581.031143,63.4895475 C581.527882,63.2223532 581.875594,62.9129749 582.074289,62.5614034 C582.272985,62.2098319 582.372331,61.8090464 582.372331,61.3590349 L582.372331,12.9689759 C582.372331,12.5189644 582.322658,12.1673981 582.22331,11.9142667 C582.123962,11.6611352 581.875597,11.4080075 581.478206,11.154876 C581.22274,10.9861217 580.882125,10.7822133 580.456349,10.5431447 C580.030573,10.3040761 579.576419,10.0579797 579.093872,9.80484823 C578.611326,9.55171675 578.128787,9.30562039 577.646241,9.06655178 L576.411497,8.45482043 L576.411497,7.94856 L590.717498,3.01252085 L591.356159,3.01252085 L591.356159,61.7809186 C591.356159,62.3715587 591.48389,62.8215635 591.739356,63.1309464 C591.994821,63.4403293 592.38511,63.6793944 592.910234,63.8481487 C593.435357,64.016903 594.102396,64.1434668 594.911371,64.227844 C595.720345,64.3122212 596.678327,64.4106597 597.785344,64.5231626 L597.785344,65.4934951 L575.730259,65.4934951 Z M641.299431,44.4836874 C641.299431,47.436888 640.753027,50.2212925 639.660202,52.8369844 C638.567377,55.4526764 637.077184,57.7378568 635.189577,59.6925944 C633.30197,61.6473319 631.080872,63.1871919 628.526216,64.3122207 C625.97156,65.4372495 623.246635,65.9997555 620.351358,65.9997555 C618.818565,65.9997555 617.229025,65.8099097 615.582691,65.4302125 C613.936357,65.0505153 612.332625,64.4669154 610.771447,63.6793952 C609.210268,62.891875 607.734267,61.9145209 606.343399,60.7473036 C604.95253,59.5800862 603.731991,58.1949153 602.681744,56.5917492 C601.631496,54.9885832 600.801245,53.1815328 600.190967,51.1705439 C599.580688,49.1595549 599.275553,46.930625 599.275553,44.4836874 C599.275553,41.7554926 599.77938,39.1328085 600.78705,36.6155566 C601.79472,34.0983047 603.221048,31.8764061 605.066077,29.9497943 C606.911106,28.0231825 609.146397,26.4833225 611.772015,25.330168 C614.397634,24.1770134 617.328348,23.6004448 620.564245,23.6004448 C622.948591,23.6004448 625.375477,24.0293556 627.844978,24.8871901 C630.314479,25.7450245 632.542673,27.0387882 634.529627,28.76852 C636.516582,30.4982518 638.141602,32.670931 639.404738,35.286623 C640.667873,37.9023149 641.299431,40.9679724 641.299431,44.4836874 Z M631.336323,44.3993107 C631.336323,43.0492761 631.258266,41.6289486 631.102148,40.1382854 C630.94603,38.6476223 630.683472,37.1851068 630.314466,35.7506951 C629.94546,34.3162833 629.470018,32.9451751 628.888124,31.6373291 C628.30623,30.3294831 627.596614,29.1833772 626.759255,28.198977 C625.921895,27.2145768 624.942625,26.4270685 623.821415,25.8364284 C622.700205,25.2457883 621.429992,24.9504726 620.010739,24.9504726 C618.27925,24.9504726 616.74648,25.5200099 615.412382,26.6591016 C614.078283,27.7981932 612.949994,29.2958653 612.027479,31.1521628 C611.104965,33.0084604 610.402445,35.124889 609.919899,37.5015124 C609.437353,39.8781357 609.196083,42.28988 609.196083,44.7368176 C609.196083,47.3243838 609.401872,49.8134727 609.813455,52.2041589 C610.225039,54.5948451 610.884982,56.7112737 611.793304,58.5535084 C612.701626,60.395743 613.879588,61.8723212 615.327227,62.9832871 C616.774865,64.0942531 618.52052,64.6497277 620.564245,64.6497277 C621.898343,64.6497277 623.090498,64.3333181 624.140745,63.7004894 C625.190993,63.0676607 626.113494,62.2309331 626.908275,61.1902814 C627.703057,60.1496298 628.384289,58.940242 628.95199,57.5620817 C629.519691,56.1839215 629.980942,54.7424999 630.335755,53.2377739 C630.690568,51.7330479 630.94603,50.2213131 631.102148,48.7025243 C631.258266,47.1837354 631.336323,45.7493452 631.336323,44.3993107 Z M676,28.7896142 C676,29.5490086 675.879365,30.2310471 675.638092,30.8357501 C675.396819,31.4404531 675.084588,31.9607711 674.70139,32.3967197 C674.318191,32.8326684 673.885326,33.170172 673.40278,33.4092406 C672.920233,33.6483092 672.423502,33.7678417 671.912571,33.7678417 C670.777168,33.7678417 669.904341,33.6061213 669.294062,33.2826755 C668.683783,32.9592297 668.179956,32.5936008 667.782565,32.1857779 C667.385174,31.7779549 667.009077,31.4123261 666.654264,31.0888803 C666.299451,30.7654345 665.809816,30.6037141 665.185344,30.6037141 C664.504103,30.6037141 663.84416,30.7935598 663.205496,31.173257 C662.566832,31.5529543 661.956562,32.0521783 661.374668,32.6709441 C660.792775,33.28971 660.267659,33.9998737 659.799305,34.8014568 C659.330952,35.6030398 658.954855,36.4397674 658.671004,37.3116647 L658.671004,62.0340488 C658.8697,62.5684375 659.252893,62.990317 659.820594,63.2996999 C660.388295,63.6090828 661.041142,63.8481478 661.779154,64.0169022 C662.517165,64.1856565 663.269358,64.3122203 664.035755,64.3965975 C664.802152,64.4809746 665.483383,64.5653505 666.079469,64.6497277 L666.079469,65.4934951 L644.705622,65.4934951 L644.705622,64.6497277 C646.068105,64.5090991 647.238972,64.1786268 648.218256,63.658301 C649.197541,63.1379752 649.687176,62.4278114 649.687176,61.5277884 L649.687176,33.345958 C649.687176,32.9240722 649.637503,32.5795373 649.538155,32.312343 C649.438808,32.0451487 649.190442,31.7849896 648.793051,31.5318582 C648.28212,31.2224753 647.664754,30.8638777 646.940935,30.4560548 C646.217116,30.0482318 645.500404,29.6896343 644.790777,29.3802514 L644.790777,28.8739909 L658.032344,23.5160681 L658.58585,23.5160681 L658.41554,35.5819416 L658.58585,35.5819416 C658.784545,35.1319301 659.047103,34.5202048 659.373531,33.7467475 C659.69996,32.9732902 660.104441,32.1435939 660.586987,31.2576338 C661.069533,30.3716736 661.637226,29.4716641 662.290082,28.5575782 C662.942939,27.6434923 663.680939,26.8208273 664.504106,26.0895586 C665.327273,25.3582899 666.249774,24.7606273 667.271636,24.2965529 C668.293498,23.8324785 669.428884,23.6004448 670.677827,23.6004448 C671.415839,23.6004448 672.111262,23.7270087 672.764119,23.9801402 C673.416975,24.2332716 673.984668,24.5918692 674.467214,25.0559436 C674.94976,25.5200179 675.325857,26.0684612 675.595515,26.7012899 C675.865173,27.3341186 676,28.0302198 676,28.7896142 Z" id="Women-and-Color" fill="#000000"></path>
    </g>
</svg>