<?xml version="1.0" encoding="UTF-8"?>
<svg width="263px" height="64px" viewBox="0 0 263 64" version="1.1" xmlns="http://www.w3.org/2000/svg" xmlns:xlink="http://www.w3.org/1999/xlink">
    <!-- Generator: Sketch 49.3 (51167) - http://www.bohemiancoding.com/sketch -->
    <title>Logo/Tribalscale</title>
    <desc>Created with Sketch.</desc>
    <defs></defs>
    <g id="Women-and-Color" stroke="none" stroke-width="1" fill="none" fill-rule="evenodd">
        <g id="Homepage" transform="translate(-732.000000, -2620.000000)">
            <g id="Footer" transform="translate(0.000000, 2539.000000)">
                <g id="Premier-Partners">
                    <g id="Logo/Tribalscale" transform="translate(715.000000, 65.000000)">
                        <rect id="Spacing" x="0" y="0" width="296" height="96"></rect>
                        <path d="M279.548718,57.4358974 L263.958974,57.4358974 L263.958974,54.4820513 L279.548718,54.4820513 L279.548718,57.4358974 Z M279.548718,48.2461538 L263.958974,48.2461538 L263.958974,45.2923077 L279.548718,45.2923077 L279.548718,48.2461538 Z M279.548718,39.0564103 L263.958974,39.0564103 L263.958974,36.1025641 L279.548718,36.1025641 L279.548718,39.0564103 Z" id="Shape" fill="#283CA7" fill-rule="nonzero"></path>
                        <polygon id="Shape" fill="#283CA7" fill-rule="nonzero" points="259.035897 57.4358974 244.266667 57.4358974 244.266667 36.1025641 247.384615 36.1025641 247.384615 54.4820513 259.035897 54.4820513"></polygon>
                        <path d="M239.589744,57.4358974 L236.14359,57.4358974 C236.14359,57.4358974 230.892308,46.2769231 228.266667,40.2871795 C226.461538,44.3897436 220.307692,57.4358974 220.307692,57.4358974 L217.025641,57.4358974 L226.953846,36.1025641 L229.661538,36.1025641 L239.589744,57.4358974 Z" id="Shape" fill="#283CA7" fill-rule="nonzero"></path>
                        <path d="M205.128205,57.8461538 C203.569231,57.8461538 202.092308,57.5179487 200.779487,57.025641 C199.466667,56.4512821 198.317949,55.6307692 197.333333,54.6461538 C196.348718,53.6615385 195.610256,52.5128205 195.035897,51.1179487 C194.461538,49.8051282 194.215385,48.3282051 194.215385,46.7692308 C194.215385,45.2102564 194.461538,43.8153846 195.035897,42.4205128 C195.610256,41.1076923 196.348718,39.8769231 197.333333,38.8923077 C198.317949,37.9076923 199.466667,37.0871795 200.779487,36.5128205 C202.092308,35.9384615 203.569231,35.6102564 205.210256,35.6102564 C206.194872,35.6102564 207.097436,35.6923077 207.917949,35.8564103 C208.738462,36.0205128 209.476923,36.2666667 210.133333,36.5128205 C210.789744,36.8410256 211.446154,37.1692308 212.020513,37.5794872 C212.594872,37.9897436 213.169231,38.4820513 213.661538,38.974359 L213.989744,39.2205128 L211.85641,41.5179487 L211.528205,41.2717949 C210.625641,40.4512821 209.723077,39.7948718 208.738462,39.3025641 C207.753846,38.8102564 206.605128,38.5641026 205.210256,38.5641026 C204.14359,38.5641026 203.076923,38.8102564 202.174359,39.1384615 C201.271795,39.5487179 200.451282,40.1230769 199.712821,40.8615385 C199.05641,41.6 198.482051,42.4205128 198.071795,43.4051282 C197.661538,44.3897436 197.497436,45.4564103 197.497436,46.6051282 C197.497436,47.7538462 197.661538,48.8205128 198.071795,49.8051282 C198.482051,50.7897436 198.974359,51.6923077 199.712821,52.3487179 C200.369231,53.0871795 201.189744,53.6615385 202.174359,54.0717949 C203.076923,54.4820513 204.14359,54.7282051 205.210256,54.7282051 C206.605128,54.7282051 207.753846,54.4820513 208.738462,53.9897436 C209.723077,53.4974359 210.707692,52.7589744 211.692308,51.8564103 L211.938462,51.6102564 L214.071795,53.6615385 L213.74359,53.9897436 C213.169231,54.5641026 212.594872,55.0564103 212.020513,55.5487179 C211.446154,56.0410256 210.789744,56.3692308 210.051282,56.6974359 C209.312821,57.025641 208.574359,57.2717949 207.753846,57.4358974 C207.015385,57.7641026 206.112821,57.8461538 205.128205,57.8461538 Z" id="Shape" fill="#283CA7" fill-rule="nonzero"></path>
                        <path d="M181.825641,57.8461538 C180.102564,57.8461538 178.54359,57.6 177.148718,57.025641 C175.753846,56.4512821 174.358974,55.6307692 173.128205,54.4820513 L172.8,54.2358974 L174.769231,51.8564103 L175.097436,52.1025641 C176.164103,53.0871795 177.230769,53.7435897 178.297436,54.2358974 C179.364103,54.7282051 180.594872,54.8923077 181.989744,54.8923077 C183.302564,54.8923077 184.369231,54.5641026 185.107692,53.9897436 C185.846154,53.4153846 186.174359,52.6769231 186.174359,51.774359 C186.174359,51.3641026 186.092308,50.9538462 185.928205,50.625641 C185.764103,50.2974359 185.517949,49.9692308 185.189744,49.7230769 C184.861538,49.3948718 184.287179,49.1487179 183.630769,48.9025641 C182.974359,48.6564103 182.071795,48.4102564 181.005128,48.1641026 C179.774359,47.9179487 178.707692,47.5897436 177.805128,47.2615385 C176.902564,46.9333333 176.082051,46.4410256 175.507692,45.9487179 C174.851282,45.4564103 174.441026,44.8 174.112821,44.1435897 C173.784615,43.4871795 173.702564,42.6666667 173.702564,41.7641026 C173.702564,40.8615385 173.866667,40.0410256 174.276923,39.3025641 C174.605128,38.5641026 175.179487,37.9076923 175.835897,37.3333333 C176.492308,36.8410256 177.230769,36.3487179 178.133333,36.1025641 C179.035897,35.774359 179.938462,35.6923077 181.005128,35.6923077 C182.564103,35.6923077 183.958974,35.9384615 185.107692,36.3487179 C186.25641,36.7589744 187.405128,37.4153846 188.553846,38.3179487 L188.882051,38.5641026 L186.994872,41.025641 L186.666667,40.7794872 C185.764103,40.0410256 184.779487,39.4666667 183.876923,39.1384615 C182.974359,38.8102564 181.989744,38.6461538 180.923077,38.6461538 C180.266667,38.6461538 179.692308,38.7282051 179.2,38.8923077 C178.707692,39.0564103 178.297436,39.3025641 177.887179,39.5487179 C177.558974,39.7948718 177.312821,40.1230769 177.148718,40.4512821 C176.984615,40.7794872 176.902564,41.1897436 176.902564,41.6 C176.902564,42.0102564 176.984615,42.4205128 177.148718,42.7487179 C177.312821,43.0769231 177.558974,43.4051282 177.887179,43.6512821 C178.297436,43.9794872 178.789744,44.225641 179.528205,44.4717949 C180.266667,44.7179487 181.169231,44.9641026 182.317949,45.2102564 C184.697436,45.7025641 186.502564,46.5230769 187.651282,47.425641 C188.882051,48.4102564 189.45641,49.8051282 189.45641,51.5282051 C189.45641,52.5128205 189.292308,53.3333333 188.882051,54.1538462 C188.471795,54.974359 187.979487,55.6307692 187.323077,56.1230769 C186.666667,56.6974359 185.846154,57.1076923 184.94359,57.3538462 C183.876923,57.6820513 182.892308,57.8461538 181.825641,57.8461538 Z" id="Shape" fill="#283CA7" fill-rule="nonzero"></path>
                        <polygon id="Shape" fill="#283CA7" fill-rule="nonzero" points="168.779487 57.4358974 154.010256 57.4358974 154.010256 36.1025641 157.128205 36.1025641 157.128205 54.4820513 168.779487 54.4820513"></polygon>
                        <path d="M149.333333,57.4358974 L145.887179,57.4358974 C145.887179,57.4358974 140.635897,46.2769231 138.010256,40.2871795 C136.205128,44.3897436 130.051282,57.4358974 130.051282,57.4358974 L126.769231,57.4358974 L136.697436,36.1025641 L139.487179,36.1025641 L149.333333,57.4358974 Z" id="Shape" fill="#283CA7" fill-rule="nonzero"></path>
                        <path d="M123.323077,49.3948718 C123.076923,48.8205128 122.666667,48.2461538 122.25641,47.8358974 C121.846154,47.425641 121.271795,47.0153846 120.697436,46.7692308 C120.369231,46.6051282 120.123077,46.5230769 119.794872,46.3589744 C119.958974,46.2769231 120.041026,46.1948718 120.205128,46.1128205 C120.615385,45.7846154 121.025641,45.4564103 121.353846,45.0461538 C121.682051,44.6358974 122.010256,44.1435897 122.174359,43.5692308 C122.420513,42.9948718 122.502564,42.3384615 122.502564,41.6 C122.502564,40.7794872 122.338462,39.9589744 122.010256,39.3025641 C121.682051,38.6461538 121.107692,37.9897436 120.451282,37.5794872 C119.794872,37.0871795 119.05641,36.7589744 118.153846,36.5128205 C117.251282,36.2666667 116.266667,36.1025641 115.2,36.1025641 L105.682051,36.1025641 L105.682051,57.4358974 L115.610256,57.4358974 C116.841026,57.4358974 117.907692,57.2717949 118.892308,57.025641 C119.876923,56.7794872 120.779487,56.3692308 121.517949,55.8769231 C122.25641,55.3846154 122.830769,54.7282051 123.241026,53.9897436 C123.651282,53.2512821 123.815385,52.3487179 123.815385,51.4461538 C123.651282,50.625641 123.569231,49.9692308 123.323077,49.3948718 Z M108.8,38.974359 L114.871795,38.974359 C116.266667,38.974359 117.415385,39.2205128 118.153846,39.7948718 C118.892308,40.2871795 119.220513,41.025641 119.220513,41.9282051 C119.220513,42.9948718 118.810256,43.8153846 117.989744,44.3076923 C117.169231,44.8820513 116.020513,45.2102564 114.707692,45.2102564 L108.8,45.2102564 L108.8,38.974359 Z M119.220513,53.6615385 C118.4,54.2358974 117.169231,54.5641026 115.610256,54.5641026 L108.882051,54.5641026 L108.882051,48.1641026 L115.2,48.1641026 C117.005128,48.1641026 118.317949,48.4923077 119.220513,48.9846154 C120.041026,49.5589744 120.451282,50.2974359 120.451282,51.2820513 C120.451282,52.2666667 120.041026,53.0871795 119.220513,53.6615385 Z" id="Shape" fill="#283CA7" fill-rule="nonzero"></path>
                        <polygon id="Shape" fill="#283CA7" fill-rule="nonzero" points="98.2153846 57.4358974 94.9333333 57.4358974 94.9333333 36.1025641 98.2153846 36.1025641"></polygon>
                        <path d="M83.9384615,48.9025641 C84.5128205,48.7384615 85.0871795,48.574359 85.6615385,48.3282051 C86.4,48 87.0564103,47.5076923 87.5487179,47.0153846 C88.1230769,46.4410256 88.5333333,45.8666667 88.7794872,45.1282051 C89.1076923,44.3897436 89.1897436,43.5692308 89.1897436,42.6666667 C89.1897436,41.6820513 89.025641,40.7794872 88.6153846,39.9589744 C88.2051282,39.1384615 87.7128205,38.4820513 86.974359,37.9076923 C86.3179487,37.3333333 85.4153846,36.9230769 84.5128205,36.5948718 C83.5282051,36.2666667 82.4615385,36.1025641 81.3128205,36.1025641 L71.9589744,36.1025641 L71.9589744,57.4358974 L75.1589744,57.4358974 L75.1589744,49.4769231 L80.4923077,49.4769231 L86.5641026,57.4358974 L90.5025641,57.4358974 L83.9384615,48.9025641 Z M75.1589744,39.0564103 L81.1487179,39.0564103 C82.7076923,39.0564103 83.9384615,39.3846154 84.8410256,40.0410256 C85.6615385,40.6974359 86.0717949,41.5179487 86.0717949,42.7487179 C86.0717949,43.3230769 85.9897436,43.8974359 85.7435897,44.3897436 C85.4974359,44.8820513 85.1692308,45.2923077 84.7589744,45.6205128 C84.3487179,45.9487179 83.774359,46.1948718 83.2,46.3589744 C82.625641,46.5230769 81.8871795,46.6051282 81.1487179,46.6051282 L75.1589744,46.6051282 L75.1589744,39.0564103 Z" id="Shape" fill="#283CA7"></path>
                        <polygon id="Shape" fill="#283CA7" fill-rule="nonzero" points="59.2410256 57.4358974 56.0410256 57.4358974 56.0410256 39.0564103 49.0666667 39.0564103 49.0666667 36.1025641 66.2974359 36.1025641 66.2974359 39.0564103 59.3230769 39.0564103 59.3230769 57.4358974"></polygon>
                        <path d="M35.0512821,27 C36.2,27 37.1025641,27.9025641 37.1025641,29.0512821 L37.1025641,67.6153846 C37.1025641,68.7641026 36.2,69.6666667 35.0512821,69.6666667 C33.9025641,69.6666667 33,68.7641026 33,67.6153846 L33,29.0512821 C33.0820513,27.9025641 33.9846154,27 35.0512821,27 Z" id="Shape" fill="#283CA7"></path>
                        <path d="M27.0512821,16 C28.2,16 29.1025641,16.9025641 29.1025641,18.0512821 L29.1025641,77.9487179 C29.1025641,79.0974359 28.2,80 27.0512821,80 C25.9025641,80 25,79.0974359 25,77.9487179 L25,18.0512821 C25.0820513,16.9025641 25.9846154,16 27.0512821,16 Z" id="Shape" fill="#283CA7"></path>
                        <path d="M19.0512821,27 C20.2,27 21.1025641,27.9025641 21.1025641,29.0512821 L21.1025641,67.6153846 C21.1025641,68.7641026 20.2,69.6666667 19.0512821,69.6666667 C17.9025641,69.6666667 17,68.7641026 17,67.6153846 L17,29.0512821 C17.0820513,27.9025641 17.9846154,27 19.0512821,27 Z" id="Shape" fill="#283CA7"></path>
                    </g>
                </g>
            </g>
        </g>
    </g>
</svg>