<?xml version="1.0" encoding="UTF-8"?>
<svg width="262px" height="44px" viewBox="0 0 262 44" version="1.1" xmlns="http://www.w3.org/2000/svg" xmlns:xlink="http://www.w3.org/1999/xlink">
    <!-- Generator: Sketch 50.2 (55047) - http://www.bohemiancoding.com/sketch -->
    <title>Logo/Tribalscale</title>
    <desc>Created with Sketch.</desc>
    <defs></defs>
    <g id="Women-and-Color" stroke="none" stroke-width="1" fill="none" fill-rule="evenodd">
        <g id="Homepage" transform="translate(-732.000000, -2630.000000)">
            <g id="Footer" transform="translate(0.000000, 2539.000000)">
                <g id="Premier-Partners">
                    <g id="Logo/Tribalscale" transform="translate(715.000000, 65.000000)">
                        <rect id="Spacing" x="0" y="0" width="296" height="96"></rect>
                        <path d="M279,57.2888889 L265.210526,57.2888889 L265.210526,54.7466667 L279,54.7466667 L279,57.2888889 Z M279,49.2711111 L265.210526,49.2711111 L265.210526,46.7288889 L279,46.7288889 L279,49.2711111 Z M279,41.2533333 L265.210526,41.2533333 L265.210526,38.7111111 L279,38.7111111 L279,41.2533333 Z" id="Shape" fill="#283CA7" fill-rule="nonzero"></path>
                        <polygon id="Shape" fill="#283CA7" fill-rule="nonzero" points="260.285714 57.2888889 247.481203 57.2888889 247.481203 38.7111111 250.197311 38.7111111 250.197311 54.7466667 260.285714 54.7466667"></polygon>
                        <path d="M242.556391,57.2888889 L239.555843,57.2888889 C239.555843,57.2888889 234.989792,47.5762963 232.706767,42.3614815 C231.141264,45.9466667 225.792461,57.2888889 225.792461,57.2888889 L222.857143,57.2888889 L231.53264,38.7111111 L233.946124,38.7111111 L242.556391,57.2888889 Z" id="Shape" fill="#283CA7" fill-rule="nonzero"></path>
                        <path d="M220.887218,54.9633634 C220.411719,55.4918919 219.868291,55.8882883 219.324864,56.2846847 C218.781436,56.6810811 218.17008,57.0114114 217.558724,57.3417417 C216.947368,57.606006 216.200156,57.8702703 215.520871,58.0024024 C214.773658,58.1345345 213.958517,58.2666667 213.075447,58.2666667 C211.64895,58.2666667 210.290381,58.0024024 209.135598,57.5399399 C207.912886,57.0114114 206.893959,56.3507508 206.010889,55.4918919 C205.12782,54.633033 204.448535,53.575976 203.905108,52.3867868 C203.429609,51.1975976 203.157895,49.9423423 203.157895,48.554955 C203.157895,47.2336336 203.429609,45.9123123 203.905108,44.7231231 C204.380607,43.5339339 205.12782,42.4768769 206.010889,41.618018 C206.893959,40.7591592 207.980814,40.0324324 209.203526,39.5039039 C210.426238,38.9753754 211.784807,38.7111111 213.211304,38.7111111 C214.094374,38.7111111 214.909515,38.7771772 215.656728,38.9093093 C216.403941,39.0414414 217.083225,39.2396396 217.694581,39.5039039 C218.305937,39.7681682 218.917293,40.0984985 219.392792,40.4288288 C219.93622,40.8252252 220.411719,41.2216216 220.887218,41.618018 L218.917293,43.6660661 C218.102152,42.9393393 217.287011,42.3447447 216.403941,41.9483483 C215.520871,41.4858859 214.434016,41.2876877 213.211304,41.2876877 C212.192377,41.2876877 211.309308,41.4858859 210.426238,41.8162162 C209.611097,42.1465465 208.863884,42.6750751 208.184599,43.3357357 C207.573243,43.9963964 207.097744,44.7231231 206.690174,45.581982 C206.350532,46.4408408 206.146746,47.3657658 206.146746,48.4228228 C206.146746,49.4138138 206.350532,50.4048048 206.690174,51.2636637 C207.029816,52.1225225 207.505315,52.9153153 208.184599,53.575976 C208.795955,54.2366366 209.543168,54.6990991 210.426238,55.0954955 C211.241379,55.4918919 212.192377,55.624024 213.211304,55.624024 C214.434016,55.624024 215.520871,55.4258258 216.403941,54.9633634 C217.287011,54.5009009 218.238009,53.9063063 219.121079,53.1135135 L220.887218,54.9633634 Z" id="Shape" fill="#283CA7" fill-rule="nonzero"></path>
                        <path d="M186.27347,53.1967078 C186.27347,53.1967078 186.27347,53.1967078 186.27347,53.1967078 C187.222287,54.0526749 188.171104,54.6452675 189.187694,55.1061728 C190.136511,55.5012346 191.288646,55.6987654 192.508553,55.6987654 C193.728461,55.6987654 194.677278,55.4353909 195.422777,54.8427984 C196.032731,54.3160494 196.371594,53.5917695 196.371594,52.7358025 C196.371594,52.4065844 196.303821,52.1432099 196.168276,51.8798354 C196.032731,51.6164609 195.829413,51.3530864 195.558322,51.0897119 C195.219459,50.8263374 194.745051,50.6288066 194.135097,50.3654321 C193.525143,50.1679012 192.711871,49.9045267 191.763054,49.7069959 C190.678692,49.509465 189.729875,49.1802469 188.916603,48.9168724 C188.103332,48.5876543 187.357833,48.2584362 186.815652,47.7975309 C186.27347,47.3366255 185.799062,46.8098765 185.527971,46.217284 C185.256881,45.6246914 185.121335,44.9004115 185.121335,44.1102881 C185.121335,43.3201646 185.256881,42.5958848 185.595744,41.9374486 C185.934607,41.2790123 186.409016,40.6864198 187.018969,40.2255144 C187.628923,39.7646091 188.30665,39.3695473 189.119921,39.1061728 C189.933193,38.8427984 190.814237,38.7111111 191.695282,38.7111111 C193.118507,38.7111111 194.406187,38.908642 195.422777,39.3037037 C196.507139,39.6987654 197.523729,40.291358 198.472546,41.0156379 C198.472546,41.0156379 198.472546,41.0156379 198.472546,41.0814815 L196.77823,43.1884774 C195.964958,42.5300412 195.083914,42.0032922 194.20287,41.7399177 C193.389598,41.4106996 192.440781,41.2790123 191.559736,41.2790123 C191.017555,41.2790123 190.475374,41.344856 190.000966,41.4765432 C189.526557,41.6082305 189.187694,41.8057613 188.848831,42.0691358 C188.57774,42.2666667 188.30665,42.5958848 188.171104,42.8592593 C188.035559,43.1884774 187.900014,43.5176955 187.900014,43.8469136 C187.900014,44.2419753 187.967786,44.5711934 188.103332,44.9004115 C188.238877,45.163786 188.442195,45.4271605 188.781058,45.690535 C189.119921,45.9539095 189.59433,46.217284 190.272056,46.4148148 C190.88201,46.6123457 191.763054,46.8757202 192.779644,47.073251 C194.948369,47.5341564 196.574912,48.1925926 197.591502,49.0485597 C198.675864,49.9045267 199.218045,51.1555556 199.218045,52.6699588 C199.218045,53.5259259 199.014727,54.2502058 198.675864,54.9744856 C198.337001,55.6329218 197.862592,56.2255144 197.252638,56.7522634 C196.642685,57.2131687 195.897186,57.6082305 195.083914,57.8716049 C194.270642,58.1349794 193.321825,58.2666667 192.373008,58.2666667 C190.814237,58.2666667 189.391012,58.0032922 188.103332,57.5423868 C186.815652,57.0814815 185.595744,56.291358 184.443609,55.2378601 L186.27347,53.1967078 Z" id="Shape" fill="#283CA7" fill-rule="nonzero"></path>
                        <polygon id="Shape" fill="#283CA7" fill-rule="nonzero" points="180.503759 57.2888889 167.699248 57.2888889 167.699248 38.7111111 170.415357 38.7111111 170.415357 54.7466667 180.43909 54.7466667 180.43909 57.2888889"></polygon>
                        <path d="M162.774436,57.2888889 L159.773888,57.2888889 C159.773888,57.2888889 155.207837,47.5762963 152.924812,42.3614815 C151.29408,45.9466667 146.010506,57.2888889 146.010506,57.2888889 L143.075188,57.2888889 L151.750685,38.7111111 L154.164169,38.7111111 L162.774436,57.2888889 Z" id="Shape" fill="#283CA7" fill-rule="nonzero"></path>
                        <path d="M139.729572,50.2488889 C139.469086,49.7274074 139.2086,49.2711111 138.817871,48.88 C138.427142,48.4888889 137.971292,48.2281481 137.45032,47.9674074 C137.189834,47.837037 136.929348,47.7066667 136.668862,47.6414815 C136.799105,47.5762963 136.864227,47.5111111 136.99447,47.4459259 C137.385199,47.1851852 137.710806,46.8592593 138.036413,46.5333333 C138.362021,46.1422222 138.622507,45.7511111 138.75275,45.2296296 C138.948114,44.7733333 139.013236,44.1866667 139.013236,43.5348148 C139.013236,42.8177778 138.882993,42.1007407 138.557385,41.5140741 C138.231778,40.9274074 137.775927,40.4059259 137.254956,40.0148148 C136.668862,39.6237037 136.017647,39.2977778 135.23619,39.037037 C134.454732,38.8414815 133.608153,38.7111111 132.63133,38.7111111 L124.360902,38.7111111 L124.360902,57.2888889 L132.956938,57.2888889 C133.998882,57.2888889 134.975704,57.1585185 135.822283,56.962963 C136.668862,56.7022222 137.45032,56.3762963 138.101535,55.92 C138.75275,55.4637037 139.2086,54.877037 139.599329,54.2251852 C139.924936,53.5733333 140.120301,52.7911111 140.120301,52.0088889 C140.055179,51.4222222 139.924936,50.7703704 139.729572,50.2488889 Z M127.096004,41.2533333 L132.370844,41.2533333 C133.608153,41.2533333 134.584975,41.5140741 135.23619,41.9703704 C135.822283,42.4266667 136.14789,43.0133333 136.14789,43.8607407 C136.14789,44.7733333 135.822283,45.4903704 135.105947,45.9466667 C134.38961,46.4681481 133.412788,46.7288889 132.240602,46.7288889 L127.096004,46.7288889 L127.096004,41.2533333 Z M136.14789,54.0296296 C135.431554,54.5511111 134.324489,54.8118519 133.022059,54.8118519 L127.161126,54.8118519 L127.161126,49.2059259 L132.696452,49.2059259 C134.259367,49.2059259 135.431554,49.4666667 136.213012,49.922963 C136.929348,50.3792593 137.320077,51.0311111 137.320077,51.8785185 C137.254956,52.8562963 136.864227,53.5081481 136.14789,54.0296296 Z" id="Shape" fill="#283CA7" fill-rule="nonzero"></path>
                        <polygon id="Shape" fill="#283CA7" fill-rule="nonzero" points="118.451128 57.2888889 115.496241 57.2888889 115.496241 38.7111111 118.451128 38.7111111"></polygon>
                        <path d="M105.590789,49.8837607 C106.133116,49.7538462 106.675444,49.5589744 107.14998,49.3641026 C107.82789,49.0393162 108.370217,48.6495726 108.912545,48.1948718 C109.387081,47.7401709 109.793827,47.1555556 110.06499,46.5709402 C110.336154,45.9213675 110.471736,45.2068376 110.471736,44.4273504 C110.471736,43.582906 110.268363,42.8034188 109.929409,42.0888889 C109.590454,41.374359 109.115917,40.7897436 108.438008,40.2700855 C107.82789,39.7504274 107.014398,39.3606838 106.200907,39.1008547 C105.319625,38.8410256 104.370552,38.7111111 103.285897,38.7111111 L94.8120301,38.7111111 L94.8120301,57.2239316 L97.6592493,57.2239316 L97.6592493,50.4034188 L102.472406,50.4034188 L107.556726,56.7692308 C107.82789,57.0940171 108.234635,57.2888889 108.709172,57.2888889 L111.556391,57.2888889 L105.590789,49.8837607 Z M97.5914584,41.374359 L103.082524,41.374359 C104.506134,41.374359 105.65858,41.634188 106.40428,42.2188034 C107.14998,42.8034188 107.556726,43.5179487 107.556726,44.557265 C107.556726,45.0769231 107.421144,45.5316239 107.217771,45.9213675 C107.014398,46.3111111 106.675444,46.7008547 106.336489,46.9606838 C105.929743,47.2205128 105.455207,47.4803419 104.912879,47.6102564 C104.370552,47.7401709 103.760433,47.8700855 103.082524,47.8700855 L97.6592493,47.8700855 L97.6592493,41.374359 L97.5914584,41.374359 Z" id="Shape" fill="#283CA7"></path>
                        <polygon id="Shape" fill="#283CA7" fill-rule="nonzero" points="83.4743026 57.2888889 80.540735 57.2888889 80.540735 41.3185185 74.1278195 41.3185185 74.1278195 38.7111111 89.887218 38.7111111 89.887218 41.3185185 83.4743026 41.3185185"></polygon>
                        <path d="M51.1555895,26 L26.9097455,26 C21.426353,26 17,30.4264264 17,35.9099099 L17,60.0900901 C17,65.5735736 21.426353,70 26.9097455,70 L51.0895245,70 C56.572917,70 60.99927,65.5735736 60.99927,60.0900901 L60.99927,35.9099099 C61.0653349,30.4924925 56.638982,26 51.1555895,26 Z M47,56.7205387 C47,57.3939394 46.3684211,58 45.5,58 C44.6315789,58 44,57.4612795 44,56.7205387 L44,39.2794613 C44,38.6060606 44.6315789,38 45.5,38 C46.3684211,38 47,38.5387205 47,39.2794613 L47,56.7205387 Z M41,61.7015945 C41,62.3849658 40.3684211,63 39.5,63 C38.6315789,63 38,62.453303 38,61.7015945 L38,34.2984055 C38,33.6150342 38.6315789,33 39.5,33 C40.3684211,33 41,33.546697 41,34.2984055 L41,61.7015945 Z M35,56.7205387 C35,57.3939394 34.3684211,58 33.5,58 C32.6315789,58 32,57.4612795 32,56.7205387 L32,39.2794613 C32,38.6060606 32.6315789,38 33.5,38 C34.3684211,38 35,38.5387205 35,39.2794613 L35,56.7205387 Z" id="Shape" fill="#283CA7" fill-rule="nonzero"></path>
                    </g>
                </g>
            </g>
        </g>
    </g>
</svg>