<?xml version="1.0" encoding="UTF-8"?>
<svg width="306px" height="24px" viewBox="0 0 306 24" version="1.1" xmlns="http://www.w3.org/2000/svg" xmlns:xlink="http://www.w3.org/1999/xlink">
    <!-- Generator: Sketch 51.3 (57544) - http://www.bohemiancoding.com/sketch -->
    <title>Logo/Tribalscale</title>
    <desc>Created with Sketch.</desc>
    <defs></defs>
    <g id="Women-and-Color" stroke="none" stroke-width="1" fill="none" fill-rule="evenodd">
        <g id="Homepage" transform="translate(-715.000000, -2640.000000)">
            <g id="Footer" transform="translate(0.000000, 2539.000000)">
                <g id="Premier-Partners">
                    <g id="Logo/Tribalscale" transform="translate(691.000000, 65.000000)">
                        <rect id="Spacing" x="0" y="0" width="354" height="96"></rect>
                        <g id="horizontal-logo" transform="translate(24.000000, 36.000000)" fill="#283CA7" fill-rule="nonzero">
                            <polygon id="Shape" points="155.472558 20.5981395 155.472558 23.4865116 143.72093 23.4865116 143.72093 11.7432558 146.609302 11.7432558 146.609302 20.5981395"></polygon>
                            <polygon id="Shape" points="155.472558 2.88837209 155.472558 0 167.215814 0 167.215814 11.7432558 164.327442 11.7432558 164.327442 2.88837209"></polygon>
                            <polygon id="Shape" points="14.3525581 7.99534884 8.69860465 7.99534884 8.69860465 23.4865116 5.67906977 23.4865116 5.67906977 7.99534884 0 7.99534884 0 5.10697674 14.3525581 5.10697674"></polygon>
                            <path d="M36.1925581,16.7916279 L32.6232558,16.7916279 L32.6232558,23.4893023 L29.6037209,23.4893023 L29.6037209,5.10692282 L36.9544186,5.10697674 C38.5233412,5.10026389 40.0299439,5.72054642 41.1393499,6.8299524 C42.2487559,7.93935838 42.8690384,9.44596109 42.8623256,11.0148837 C42.8403108,13.3678457 41.397976,15.4740074 39.212093,16.3451163 L43.3981395,23.4865116 L40.08,23.4865116 L36.1925581,16.7916279 Z M32.6232558,14.0874419 L36.9544186,14.0874419 C38.5562791,14.0874419 39.8427907,12.72 39.8427907,11.0176744 C39.8427907,9.31534884 38.5562791,7.94790698 36.9544186,7.94790698 L32.6232558,7.94790698 L32.6232558,14.0874419 Z" id="Shape"></path>
                            <path d="M99.3293023,18.2344186 C99.3293023,21.2818605 96.8623256,23.4865116 93.8148837,23.4865116 L85.9534884,23.4865116 L85.9534884,5.10697674 L93.2372093,5.10697674 C96.2065116,5.10697674 98.6204651,7.25860465 98.6204651,10.2 C98.6515363,11.6810153 97.9550868,13.0832977 96.7562791,13.9534884 C98.3678552,14.7647462 99.3691099,16.4306081 99.3293023,18.2344186 Z M88.9590698,7.94227821 L88.9590698,12.7730701 L93.2372093,12.7730233 C93.8741054,12.7770434 94.4853512,12.5223513 94.930954,12.0672788 C95.3765568,11.6122063 95.6183407,10.9957406 95.6009302,10.3590698 C95.6191114,9.72192214 95.3776694,9.10472541 94.9319812,8.64903948 C94.486293,8.19335354 93.8746034,7.93828115 93.2372093,7.94232558 L88.9590698,7.94227821 Z M96.3097674,18.0781395 C96.3309225,17.4030228 96.0774385,16.7481779 95.6072445,16.2632575 C95.1370506,15.7783371 94.4903318,15.5047849 93.8148837,15.5051163 L88.9590698,15.505116 L88.9590698,20.6511628 L93.8148837,20.6511628 C94.4888752,20.6468712 95.1328597,20.3718685 95.6020492,19.887984 C96.0712386,19.4040996 96.3262568,18.7519429 96.3097674,18.0781395 Z" id="Shape"></path>
                            <path d="M125.045581,19.7832558 L117.209302,19.7832558 L115.922791,23.4865116 L112.652093,23.4865116 L119.32186,5.10697674 L122.949767,5.10697674 L129.594419,23.4865116 L126.332093,23.4865116 L125.045581,19.7832558 Z M124.046512,16.947907 L121.133023,8.65116279 L118.219535,16.947907 L124.046512,16.947907 Z" id="Shape"></path>
                            <polygon id="Shape" points="69.0753488 7.99534884 69.0753488 5.10697674 58.7386047 5.10697674 58.7386047 7.99534884 62.3972093 7.99534884 62.3972093 20.5981395 58.7386047 20.5981395 58.7386047 23.4865116 69.0753488 23.4865116 69.0753488 20.5981395 65.4167442 20.5981395 65.4167442 7.99534884"></polygon>
                            <path d="M180.27907,19.3116279 L182.877209,17.787907 C183.535814,19.652093 184.953488,20.8883721 187.445581,20.8883721 C189.837209,20.8883721 190.861395,19.8111628 190.861395,18.4716279 C190.861395,16.8446512 189.415814,16.292093 186.675349,15.452093 C183.812093,14.584186 181.029767,13.5348837 181.029767,10.0688372 C181.029767,6.68093023 183.837209,4.76651163 186.937674,4.76651163 C189.693597,4.69617297 192.220868,6.29182282 193.342326,8.81023256 L190.797209,10.2781395 C190.141395,8.81023256 188.986047,7.70511628 186.937674,7.70511628 C185.176744,7.70511628 184.049302,8.59813953 184.049302,9.99069767 C184.049302,11.3832558 185.073488,12.0111628 187.749767,12.8511628 C190.797209,13.8251163 193.869767,14.7683721 193.869767,18.4325581 C193.869767,21.7813953 191.190698,23.8409302 187.356279,23.8409302 C183.756279,23.8269767 181.261395,22.0465116 180.27907,19.3116279 Z" id="Shape"></path>
                            <path d="M206.338605,14.2967442 C206.338605,8.96651163 210.357209,4.76651163 215.949767,4.76651163 C219.298605,4.76651163 222.304186,6.47162791 223.853023,9.15069767 L221.226977,10.6744186 C220.255814,8.86046512 218.260465,7.70511628 215.949767,7.70511628 C211.984186,7.70511628 209.35814,10.5153488 209.35814,14.2967442 C209.35814,18.0781395 211.984186,20.8883721 215.949767,20.8883721 C218.260465,20.8883721 220.28093,19.7330233 221.226977,17.9190698 L223.853023,19.4176744 C222.329302,22.0939535 219.334884,23.8269767 215.949767,23.8269767 C210.357209,23.8269767 206.338605,19.6269767 206.338605,14.2967442 Z" id="Shape"></path>
                            <path d="M247.986977,19.7832558 L240.173023,19.7832558 L238.883721,23.4865116 L235.593488,23.4865116 L242.263256,5.10697674 L245.891163,5.10697674 L252.533023,23.4865116 L249.273488,23.4865116 L247.986977,19.7832558 Z M246.990698,16.947907 L244.074419,8.65116279 L241.16093,16.947907 L246.990698,16.947907 Z" id="Shape"></path>
                            <polygon id="Shape" points="278.905116 20.5981395 278.905116 23.4865116 267.153488 23.4865116 267.153488 5.10697674 270.173023 5.10697674 270.173023 20.5981395"></polygon>
                            <polygon id="Shape" points="305.651163 20.5981395 305.651163 23.4865116 294.011163 23.4865116 294.011163 5.10697674 305.52 5.10697674 305.52 7.99534884 297.030698 7.99534884 297.030698 12.7730233 304.864186 12.7730233 304.864186 15.627907 297.030698 15.627907 297.030698 20.5981395"></polygon>
                        </g>
                    </g>
                </g>
            </g>
        </g>
    </g>
</svg>