<?xml version="1.0" encoding="UTF-8"?>
<svg width="223px" height="32px" viewBox="0 0 223 32" version="1.1" xmlns="http://www.w3.org/2000/svg" xmlns:xlink="http://www.w3.org/1999/xlink">
    <!-- Generator: Sketch 51.3 (57544) - http://www.bohemiancoding.com/sketch -->
    <title>Logo/Wealthsimple</title>
    <desc>Created with Sketch.</desc>
    <defs></defs>
    <g id="Women-and-Color" stroke="none" stroke-width="1" fill="none" fill-rule="evenodd">
        <g id="Homepage" transform="translate(-420.000000, -2636.000000)">
            <g id="Footer" transform="translate(0.000000, 2539.000000)">
                <g id="Premier-Partners">
                    <g id="Logo/Wealthsimple" transform="translate(396.000000, 65.000000)">
                        <rect id="Spacing" x="0" y="0" width="270" height="96"></rect>
                        <path d="M245.825635,45.859262 C245.669738,45.4929235 245.515892,45.1649441 245.359994,44.8765748 C245.204097,44.588103 245.031789,44.3105441 244.843071,44.0441236 C244.654353,43.7776826 244.438969,43.4890672 244.194866,43.1780928 C243.41743,42.2458057 242.484097,41.5297031 241.396918,41.0299288 C240.309738,40.5305031 239.109738,40.2808211 237.80102,40.2808211 C236.555892,40.2808211 235.396918,40.4974775 234.319995,40.930257 C233.243072,41.3635083 232.309738,41.9628723 231.522046,42.7290467 C230.734354,43.4946056 230.116918,44.3989954 229.673841,45.4429953 C229.228713,46.4861133 229.007585,47.6185645 229.007585,48.8403491 C229.007585,50.0830568 229.241021,51.2490054 229.706662,52.3369849 C230.174354,53.4244926 230.816405,54.3737643 231.638969,55.184431 C232.459482,55.9948925 233.419482,56.6332515 234.518969,57.0993027 C235.618456,57.5659694 236.799995,57.7985848 238.065636,57.7985848 C239.177431,57.7985848 240.196918,57.6324309 241.130251,57.2995079 C242.063584,56.9661745 242.884097,56.488431 243.595892,55.8675079 C244.305636,55.2451489 244.8882,54.4905849 245.343584,53.6026874 C245.798969,52.7143182 246.092302,51.7260926 246.225635,50.6385849 L235.202046,50.6385849 C235.22461,46.4861133 237.078969,44.410462 240.765123,44.410462 C242.164097,44.410462 243.349738,44.7542979 244.3282,45.4429953 C244.705636,45.6870569 245.005123,45.9366569 245.226661,46.1926774 C245.4482,46.4471594 245.727174,46.830503 246.059482,47.3410671 L246.358969,47.2083081 C246.159994,46.6752825 245.981533,46.2256004 245.825635,45.859262 M240.330251,52.0145439 C240.330251,52.2836105 240.326148,52.5241644 240.313841,52.7377849 C240.303584,52.9509336 240.291277,53.1475695 240.28102,53.3267285 C240.270764,53.5058874 240.252302,53.7075079 240.231789,53.9325746 C240.141533,55.1438156 239.919995,56.0248412 239.565123,56.5747899 C239.210251,57.123713 238.699482,57.3994053 238.032815,57.3994053 C237.101533,57.3994053 236.395892,56.8547899 235.917943,55.7667899 C235.439995,54.6781746 235.202046,53.1015592 235.202046,51.0383388 L240.330251,51.0383388 L240.330251,52.0145439" id="path36" fill="#283CA7" fill-rule="nonzero" transform="translate(237.683277, 49.039703) scale(-1, 1) rotate(-180.000000) translate(-237.683277, -49.039703) "></path>
                        <path d="M218.741534,32.2875905 L218.741534,32.6872008 C219.318559,32.7313444 219.745841,32.8031392 220.02379,32.9034674 C220.301328,33.002729 220.539893,33.1743803 220.739893,33.4181136 C220.894764,33.6390367 221.006559,33.9655597 221.072816,34.3977648 C221.139277,34.8293341 221.172713,35.5659494 221.172713,36.6065853 L221.172713,50.2578875 C221.172713,51.2541952 221.12779,51.9901952 221.03938,52.4662977 C220.950559,52.9424003 220.772918,53.3577849 220.506867,53.7120413 C220.261739,54.0439387 219.978867,54.2820925 219.657431,54.4258874 C219.335585,54.5694772 218.896816,54.6529643 218.341739,54.6753233 L218.275482,55.0406566 C218.719175,55.1290669 219.101944,55.2057848 219.424405,55.2728618 C219.745841,55.3391182 220.062149,55.410913 220.373534,55.4888617 C220.684098,55.5661951 221.021944,55.6494771 221.387277,55.7378874 C221.751585,55.8262976 222.187892,55.9370669 222.695995,56.0701951 C223.225431,56.2031181 223.667687,56.3194258 224.020508,56.4191181 C224.373944,56.5186053 224.699277,56.6178874 224.997739,56.7175797 C225.295174,56.8178874 225.599174,56.9171694 225.908098,57.0170668 C226.217431,57.1163489 226.592405,57.2322463 227.034046,57.3655797 L227.034046,36.6065853 C227.034046,36.0970468 227.039585,35.6654776 227.051072,35.3109956 C227.061944,34.9567392 227.084508,34.6632418 227.117328,34.4311802 C227.150764,34.1985648 227.195277,34.0049854 227.250662,33.8496828 C227.306046,33.6944008 227.378456,33.5501751 227.467277,33.4181136 C227.644918,33.1743803 227.871995,33.002729 228.149944,32.9034674 C228.427482,32.8031392 228.866251,32.7313444 229.46461,32.6872008 L229.46461,32.2875905 L218.741534,32.2875905" id="path34" fill="#283CA7" fill-rule="nonzero" transform="translate(223.870046, 44.826585) scale(-1, 1) rotate(-180.000000) translate(-223.870046, -44.826585) "></path>
                        <path d="M218.523072,52.2200003 C218.11097,51.0541337 217.548918,50.038585 216.836713,49.1724927 C216.123482,48.3067081 215.288405,47.6292927 214.330662,47.1413132 C213.373534,46.6530876 212.337841,46.4079799 211.224816,46.4079799 C210.578662,46.4079799 210.016611,46.4974158 209.538047,46.6746466 C209.058867,46.8522876 208.529842,47.1626261 207.95138,47.607426 L207.95138,44.5649646 C207.95138,44.0598979 207.956303,43.6381133 207.96779,43.2968415 C207.978867,42.9573339 208.006354,42.6664826 208.051072,42.4248211 C208.095175,42.1831452 208.15097,41.9860293 208.217842,41.8324231 C208.284303,41.678737 208.372508,41.5360293 208.483893,41.4047001 C208.684098,41.1631124 208.950559,40.9934016 209.283483,40.8941216 C209.616406,40.7958857 210.137842,40.7244908 210.848611,40.680019 L210.848611,40.2808211 L198.992201,40.2808211 L198.992201,40.680019 C199.746867,40.7468478 200.291278,40.8401954 200.624201,40.9620703 C200.957124,41.0837052 201.245534,41.2998918 201.490047,41.6098283 C201.71179,41.853338 201.856406,42.1852272 201.923278,42.6059903 C201.967175,42.783139 202.000611,42.96078 202.023175,43.1369851 C202.044508,43.3146262 202.061534,43.5248826 202.073021,43.7684108 C202.084098,44.0119184 202.089431,44.3224825 202.089431,44.6986877 L202.089431,56.5870771 C202.089431,57.0741745 202.077944,57.5004514 202.055996,57.8657643 C202.033637,58.2310566 202.000611,58.5465232 201.956303,58.8120617 C201.91138,59.0775386 201.850867,59.310154 201.773124,59.5092719 C201.695175,59.7088616 201.589944,59.8970873 201.456611,60.0742565 C201.212098,60.3841847 200.929021,60.6112616 200.60779,60.7545437 C200.285329,60.8982565 199.835688,60.9926155 199.258662,61.0375385 L199.225226,61.369436 C199.64697,61.4578462 200.018867,61.5405129 200.341124,61.6178462 C200.66256,61.6957949 200.979072,61.779077 201.290457,61.8674872 C201.600816,61.9558975 201.938867,62.0500513 202.304201,62.1499488 C202.668508,62.2492308 203.116098,62.376 203.646149,62.5312821 C204.17579,62.6865641 204.617021,62.8133334 204.970252,62.9130257 C205.323688,63.0133334 205.649636,63.1126154 205.947483,63.2125128 C206.245534,63.3117949 206.549329,63.4172308 206.858252,63.528 C207.167175,63.638359 207.531688,63.7714872 207.95138,63.9261538 L207.95138,61.7616411 C208.86379,62.5386667 209.715688,63.0937436 210.506252,63.4270769 C211.296816,63.76 212.115277,63.9261538 212.961841,63.9261538 C213.874662,63.9261538 214.709534,63.7316923 215.466662,63.3437949 C216.22379,62.9550769 216.875072,62.411077 217.421123,61.7117949 C217.966559,61.0125129 218.389328,60.1795488 218.690252,59.2138258 C218.990764,58.2480412 219.141534,57.1764925 219.141534,56.0001233 C219.141534,54.6456413 218.93538,53.3853951 218.523072,52.2200003 M212.108303,60.1466052 C211.571688,61.4227693 210.834662,62.0615385 209.89579,62.0615385 C209.627277,62.0615385 209.35938,62.0057436 209.091277,61.8949744 C208.822765,61.7835898 208.442867,61.5731283 207.95138,61.2621539 L207.95138,48.1405132 C208.442867,47.6512619 208.990559,47.4071799 209.593842,47.4071799 C210.644508,47.4071799 211.460508,48.0621542 212.041841,49.3720824 C212.622765,50.6822567 212.913431,52.51399 212.913431,54.867672 C212.913431,57.110154 212.644918,58.869436 212.108303,60.1466052" id="path32" fill="#283CA7" fill-rule="nonzero" transform="translate(209.066867, 52.103487) scale(-1, 1) rotate(-180.000000) translate(-209.066867, -52.103487) "></path>
                        <path d="M190.100098,40.280616 L190.100098,40.6802262 C190.721432,40.7467288 191.137637,40.9354262 191.349329,41.2464006 C191.559996,41.5571493 191.665227,42.179098 191.665227,43.1113851 L191.665227,51.5375798 C191.665227,52.3141952 191.637329,52.9031387 191.581945,53.3024208 C191.525534,53.7021746 191.419278,54.0240413 191.26256,54.2685541 C191.128201,54.4902977 190.921021,54.6679387 190.642047,54.8010669 C190.362047,54.9344002 190.076714,55.001272 189.785637,55.001272 C189.405329,55.001272 189.025022,54.9065028 188.644714,54.7177848 C188.264406,54.529272 187.828304,54.2127592 187.335586,53.7690874 L187.335586,43.1113851 C187.335586,42.6453544 187.357534,42.2624211 187.402457,41.9625031 C187.44697,41.6625852 187.524304,41.4234057 187.635688,41.2464006 C187.746457,41.0685134 187.90215,40.9354262 188.101739,40.8466467 C188.301945,40.7577852 188.568406,40.7024211 188.901329,40.6802262 L188.901329,40.280616 L179.94256,40.280616 L179.94256,40.6802262 C180.252919,40.7024211 180.508509,40.7577852 180.708099,40.8466467 C180.908304,40.9354262 181.06297,41.0685134 181.174355,41.2464006 C181.28574,41.4234057 181.363073,41.6625852 181.407996,41.9625031 C181.451893,42.2624211 181.474252,42.6453544 181.474252,43.1113851 L181.474252,51.5375798 C181.474252,52.2922464 181.446355,52.8532105 181.39097,53.2190772 C181.335586,53.585908 181.218663,53.9127592 181.041637,54.2017643 C180.908304,54.4457849 180.702765,54.6349131 180.425227,54.767631 C180.147278,54.9009643 179.842253,54.9678361 179.509329,54.9678361 C179.131483,54.9678361 178.760201,54.8790156 178.393842,54.7013746 C178.027073,54.5231182 177.610868,54.2127592 177.144612,53.7690874 L177.144612,43.1113851 C177.144612,42.6453544 177.16656,42.2624211 177.211483,41.9625031 C177.255381,41.6625852 177.33333,41.4234057 177.444714,41.2464006 C177.555483,41.0685134 177.716099,40.9354262 177.927176,40.8466467 C178.138458,40.7577852 178.39897,40.7024211 178.70974,40.6802262 L178.70974,40.280616 L168.585637,40.280616 L168.585637,40.6802262 C169.229125,40.7237339 169.706663,40.7957544 170.017637,40.8954467 C170.328612,40.9953647 170.583996,41.1664416 170.783791,41.4101134 C170.983381,41.6536211 171.111176,41.9851082 171.16656,42.4051287 C171.221945,42.825498 171.249842,43.5547287 171.249842,44.5943184 L171.249842,50.0348721 C171.249842,50.5214773 171.238355,50.9467285 171.216407,51.311467 C171.194458,51.6763695 171.161022,51.9917541 171.116714,52.2572926 C171.072201,52.5222772 171.010868,52.7548926 170.933535,52.9540105 C170.855586,53.1526567 170.750355,53.3413541 170.617022,53.518031 C170.372509,53.8269336 170.089432,54.0540105 169.767586,54.1977643 C169.44574,54.3415797 168.995894,54.4353233 168.419073,54.4798361 L168.385637,54.8115284 C168.63015,54.855631 168.84615,54.8995284 169.034868,54.9438361 C169.223586,54.9883489 169.37333,55.0322464 169.484509,55.0771695 C170.017637,55.2088618 170.528201,55.3362464 171.016817,55.4578874 C171.504817,55.5797335 171.993637,55.7124515 172.482048,55.8562464 C172.970253,55.9994258 173.481432,56.1547079 174.014355,56.3208617 C174.546868,56.4861951 175.135381,56.6798361 175.779073,56.9013745 L177.144612,57.3655797 L177.144612,54.2017643 C177.344817,54.4018874 177.522047,54.5791182 177.67774,54.7348105 C177.832817,54.8900925 177.988099,55.0287592 178.143791,55.1510156 C178.299073,55.2728618 178.460304,55.3951182 178.627073,55.5173746 C178.793227,55.6390156 178.998355,55.7778874 179.242868,55.9335797 C180.019894,56.4441438 180.73456,56.8105027 181.388509,57.0326566 C182.041842,57.254195 182.721432,57.3655797 183.428304,57.3655797 C185.635688,57.3655797 186.938457,56.3108104 187.335586,54.2017643 C187.580098,54.4234259 187.790765,54.6180925 187.969022,54.7846566 C188.146252,54.9508105 188.312816,55.1011695 188.468098,55.2342977 C188.62338,55.367631 188.772919,55.4894771 188.917739,55.6006566 C189.061945,55.7114258 189.222765,55.8221951 189.400816,55.9335797 C190.111175,56.4217848 190.821329,56.7830156 191.532098,57.0160412 C192.242252,57.249272 192.953021,57.3655797 193.663586,57.3655797 C196.216406,57.3655797 197.493739,55.7953233 197.493739,52.6550567 L197.493739,43.9309338 L197.527175,43.1013749 C197.549124,42.6148313 197.565534,42.2669134 197.577021,42.0568211 C197.588098,41.8461544 197.648816,41.6536211 197.760201,41.4763698 C197.893534,41.2328621 198.087585,41.0507288 198.343175,40.9288621 C198.598149,40.8069749 198.980919,40.7237339 199.492098,40.6802262 L199.492098,40.280616 L190.100098,40.280616" id="path30" fill="#283CA7" fill-rule="nonzero" transform="translate(183.938868, 48.823098) scale(-1, 1) rotate(-180.000000) translate(-183.938868, -48.823098) "></path>
                        <path d="M158.061535,32.1544623 L158.061535,32.5540726 C158.66092,32.5982162 159.099279,32.6704008 159.377227,32.7703392 C159.654766,32.8705649 159.881843,33.0422777 160.059894,33.2868315 C160.237125,33.5309136 160.359381,33.8638366 160.426253,34.2859495 C160.492715,34.7073443 160.52615,35.4400417 160.52615,36.4841033 L160.52615,41.9461339 C160.52615,42.4342775 160.514663,42.8619082 160.492715,43.2282672 C160.47015,43.5946056 160.431176,43.9110364 160.376407,44.1770672 C160.320407,44.4435697 160.25415,44.6771492 160.176202,44.8767389 C160.098458,45.0764107 159.993022,45.2651287 159.859894,45.4427697 C159.615176,45.753662 159.332304,45.9807389 159.010253,46.1255799 C158.688407,46.2697851 158.238766,46.364144 157.66174,46.4084517 L157.628304,46.741785 C158.072612,46.8301953 158.455381,46.9136825 158.777843,46.9914261 C159.099279,47.0693748 159.415586,47.1526568 159.726561,47.2414773 C160.037535,47.3298876 160.376407,47.4242466 160.74215,47.5245543 C161.10892,47.6242466 161.546663,47.7516312 162.057843,47.9073235 C162.568407,48.0624004 163.001638,48.1908106 163.35692,48.2900927 C163.711791,48.3904004 164.044714,48.4902978 164.356099,48.5899901 C164.666458,48.6898876 164.977432,48.7951183 165.288407,48.9065029 C165.599381,49.0172722 165.96574,49.1506055 166.387484,49.3062978 L166.387484,36.4841033 C166.387484,35.9729648 166.393022,35.5403699 166.404304,35.1854776 C166.415381,34.8295392 166.43733,34.5356315 166.470766,34.3026264 C166.504202,34.0693751 166.554048,33.874729 166.620509,33.719611 C166.687381,33.5639187 166.764714,33.4201649 166.853535,33.2868315 C167.031176,33.0422777 167.258868,32.8705649 167.536817,32.7703392 C167.81374,32.6704008 168.252509,32.5982162 168.851894,32.5540726 L168.851894,32.1544623 L158.061535,32.1544623 Z M166.337432,52.4535798 C166.14892,52.020349 165.89333,51.6484516 165.571484,51.3374772 C165.249432,51.0265029 164.872202,50.7766567 164.439381,50.5883491 C164.006355,50.3998362 163.545022,50.3054773 163.057022,50.3054773 C162.568407,50.3054773 162.113227,50.3998362 161.691484,50.5883491 C161.26974,50.7766567 160.897432,51.0265029 160.575997,51.3374772 C160.25415,51.6484516 159.998561,52.020349 159.809843,52.4535798 C159.62133,52.8861951 159.526971,53.3469131 159.526971,53.8355285 C159.526971,54.3235284 159.62133,54.7793233 159.809843,55.2010669 C159.998561,55.6228105 160.247997,55.9947079 160.559586,56.316554 C160.869945,56.6384002 161.242253,56.8939899 161.675073,57.0825027 C162.108099,57.2712207 162.568407,57.3655797 163.057022,57.3655797 C163.545022,57.3655797 164.006355,57.2712207 164.439381,57.0825027 C164.872202,56.8939899 165.249432,56.6439386 165.571484,56.3333745 C165.89333,56.0219899 166.14892,55.6507079 166.337432,55.2180925 C166.52574,54.7846566 166.620509,54.3235284 166.620509,53.8355285 C166.620509,53.3469131 166.52574,52.8861951 166.337432,52.4535798 Z" id="path28" fill="#283CA7" fill-rule="nonzero" transform="translate(163.240099, 44.760021) scale(-1, 1) rotate(-180.000000) translate(-163.240099, -44.760021) "></path>
                        <path d="M157.012715,43.9011287 C156.646356,43.1558569 156.135176,42.5161031 155.481022,41.9821339 C154.825638,41.4485544 154.042663,41.0313442 153.132715,40.7308519 C152.221946,40.4313442 151.234253,40.280616 150.168612,40.280616 C149.857638,40.280616 149.552817,40.2912621 149.252715,40.3115493 C148.953433,40.3320621 148.625023,40.3734775 148.270151,40.4344621 C147.915279,40.4963903 147.526356,40.5745237 147.104612,40.6699493 C146.682869,40.7657031 146.182971,40.9021749 145.605946,41.0802057 C145.2281,41.1909544 144.923074,41.279816 144.690048,41.3466467 C144.457023,41.4130672 144.240407,41.4795698 144.040818,41.5464826 C143.840612,41.612657 143.646561,41.6795698 143.457843,41.7459903 C143.269125,41.8129031 143.041638,41.9012929 142.775177,42.0125134 L142.442253,48.6399799 L142.775177,48.6399799 C143.3081,47.4186671 143.890459,46.3141953 144.523894,45.3265235 C145.156305,44.3382364 145.822561,43.4998364 146.521843,42.8121031 C147.221535,42.1232416 147.931689,41.5963288 148.65333,41.2298877 C149.374561,40.8635493 150.090869,40.6803698 150.801433,40.6803698 C151.534151,40.6803698 152.122048,40.9025647 152.566766,41.3476724 C153.010458,41.7923903 153.232612,42.3708313 153.232612,43.0830159 C153.232612,43.8168415 153.00451,44.4172313 152.54974,44.8849441 C152.094561,45.3520005 151.278561,45.7861338 150.102151,46.186462 L148.470151,46.7539286 C146.338664,47.4875902 144.817843,48.2940722 143.907484,49.1730055 C142.996715,50.0513644 142.541946,51.1024824 142.541946,52.3267695 C142.541946,53.1049028 142.725125,53.8280413 143.091484,54.49479 C143.457843,55.162031 143.95733,55.7404925 144.590356,56.2301335 C145.223176,56.7197745 145.972305,57.1035694 146.838151,57.3815181 C147.704202,57.659672 148.647997,57.7987489 149.669125,57.7987489 C150.55692,57.7987489 151.456202,57.7318771 152.366561,57.5991591 C153.27692,57.4660309 154.353433,57.221313 155.59733,56.8660309 L155.930663,51.4044106 L155.59733,51.4044106 C155.241843,52.2703593 154.819689,53.069949 154.331484,53.8025644 C153.842869,54.53479 153.321433,55.1675694 152.766356,55.7006976 C152.211484,56.2336207 151.64492,56.6498258 151.067894,56.949313 C150.490048,57.2494156 149.935587,57.398954 149.402458,57.398954 C148.758151,57.398954 148.209228,57.1819284 147.754048,56.7482874 C147.298869,56.314031 147.071176,55.786031 147.071176,55.163672 C147.071176,53.8285336 148.125946,52.816349 150.235484,52.1266054 L152.499894,51.3929644 C154.276099,50.8140311 155.563894,50.1242875 156.363279,49.3237337 C157.162458,48.5226876 157.562253,47.5220312 157.562253,46.3206774 C157.562253,45.4528005 157.379074,44.6463184 157.012715,43.9011287" id="path26" fill="#283CA7" fill-rule="nonzero" transform="translate(150.002253, 49.039682) scale(-1, 1) rotate(-180.000000) translate(-150.002253, -49.039682) "></path>
                        <path d="M132.484305,32.2875905 L132.484305,32.6872008 C133.105638,32.7537033 133.521843,32.9424008 133.73292,33.2533751 C133.943997,33.5641238 134.049433,34.1860725 134.049433,35.1183597 L134.049433,43.9109133 C134.049433,44.5103595 134.021331,44.960021 133.965536,45.2594671 C133.909741,45.5593851 133.792408,45.8309338 133.613125,46.0754876 C133.455997,46.2970671 133.243895,46.4753235 132.975382,46.6084517 C132.706869,46.741785 132.427279,46.8080415 132.136818,46.8080415 C131.75651,46.8080415 131.359792,46.7132722 130.946049,46.5251697 C130.53169,46.3364517 130.06769,46.0200415 129.553638,45.5758979 L129.553638,34.918852 C129.553638,34.6523289 129.56451,34.4295802 129.586459,34.2525751 C129.608408,34.0746879 129.630972,33.9305443 129.653331,33.8193238 C129.674869,33.7079392 129.708305,33.597211 129.753228,33.4864008 C129.863997,33.241929 130.01969,33.0587495 130.219279,32.9368623 C130.419485,32.8146059 130.718972,32.7313444 131.118767,32.6872008 L131.118767,32.2875905 L121.027485,32.2875905 L121.027485,32.6872008 C121.671382,32.7313444 122.14851,32.8031392 122.459485,32.9034674 C122.770459,33.002729 123.025844,33.1743803 123.225639,33.4181136 C123.40328,33.6615597 123.525536,33.9934366 123.591998,34.4141956 C123.658869,34.8349546 123.69169,35.5659494 123.69169,36.6065853 L123.69169,50.2578875 C123.69169,51.2541952 123.646767,51.9901952 123.558562,52.4662977 C123.469536,52.9424003 123.302972,53.3577849 123.058869,53.7120413 C122.814357,54.0439387 122.53128,54.2820925 122.209844,54.4258874 C121.887587,54.5694772 121.437741,54.6529643 120.860921,54.6753233 L120.827485,55.0406566 C121.294151,55.1290669 121.704408,55.2119387 122.0601,55.289272 C122.414972,55.3670156 122.753433,55.4445541 123.07528,55.5218874 C123.397331,55.599631 123.729639,55.6831182 124.071997,55.7713233 C124.414356,55.8597335 124.806151,55.9594258 125.248408,56.0701951 C125.711587,56.2031181 126.114254,56.3138874 126.456613,56.4027079 C126.798972,56.4911181 127.12492,56.5844515 127.433844,56.6847592 C127.742767,56.7844515 128.062767,56.8837335 128.394254,56.9836309 C128.725126,57.082913 129.111382,57.2107079 129.553638,57.3655797 L129.553638,46.0730056 C129.863997,46.338503 130.130459,46.5600415 130.352613,46.7372722 C130.574151,46.9138876 130.774356,47.0691697 130.951997,47.202503 C131.129638,47.3348107 131.296408,47.4564517 131.45169,47.5672209 C131.606767,47.6775799 131.784408,47.799426 131.984613,47.9325542 C132.761638,48.4416824 133.488408,48.8129645 134.166151,49.0455799 C134.842869,49.2771696 135.536613,49.3938875 136.247382,49.3938875 C137.468715,49.3938875 138.389946,49.017067 139.011895,48.2650671 C139.322869,47.8882466 139.544818,47.4400414 139.677741,46.9194261 C139.810869,46.3994261 139.877741,45.6737235 139.877741,44.7439184 L139.877741,35.9424007 L139.911177,35.1113853 C139.932715,34.6248623 139.949741,34.2754879 139.961228,34.0652315 C139.9721,33.8552213 140.033023,33.6615597 140.144202,33.4843905 C140.277536,33.2408828 140.471177,33.0581136 140.726766,32.9364726 C140.981741,32.8146059 141.365125,32.7313444 141.8761,32.6872008 L141.8761,32.2875905 L132.484305,32.2875905" id="path24" fill="#283CA7" fill-rule="nonzero" transform="translate(131.351792, 44.826585) scale(-1, 1) rotate(-180.000000) translate(-131.351792, -44.826585) "></path>
                        <path d="M117.480613,34.4865648 C116.581126,34.1086777 115.667895,33.9191802 114.739075,33.9191802 C113.436511,33.9191802 112.343382,34.2754264 111.460921,34.9870571 C110.908511,35.4317546 110.522254,35.9882469 110.301536,36.6562058 C110.081023,37.3228725 109.970665,38.2691083 109.970665,39.4929852 L109.970665,49.4723901 L105.874254,49.4723901 C106.340306,49.6723901 106.750972,49.8606978 107.106459,50.0387491 C107.461331,50.2159798 107.789126,50.3936209 108.088613,50.5712619 C108.388511,50.7489029 108.688613,50.9376208 108.9881,51.137826 C109.287998,51.3374157 109.636921,51.5815183 110.036511,51.8705439 C111.030357,52.6030567 111.9241,53.3466464 112.719177,54.1019285 C113.050049,54.4122874 113.342562,54.6953643 113.596716,54.9507489 C113.850664,55.2059284 114.092716,55.47239 114.325331,55.7503387 C114.557331,56.0278771 114.788921,56.3273643 115.021126,56.6492104 C115.252716,56.9712617 115.523075,57.3540309 115.831998,57.7987489 L115.831998,51.0044926 L120.02851,51.0044926 L119.195895,49.4723901 L115.831998,49.4723901 L115.831998,39.8597955 C115.831998,38.5921852 116.042664,37.685293 116.464818,37.139693 C116.886562,36.5946673 117.597331,36.3222161 118.59651,36.3222161 C118.906869,36.3222161 119.195895,36.3441853 119.462357,36.3891289 C119.729023,36.4336007 120.072818,36.5332725 120.494562,36.6896212 L120.694767,36.4225443 C119.451075,35.510134 118.379895,34.8647802 117.480613,34.4865648" id="path22" fill="#283CA7" fill-rule="nonzero" transform="translate(113.284511, 45.858965) scale(-1, 1) rotate(-180.000000) translate(-113.284511, -45.858965) "></path>
                        <path d="M96.0162033,32.2875905 L96.0162033,32.6872008 C96.593229,32.7313444 97.020511,32.8031392 97.2984597,32.9034674 C97.5759982,33.002729 97.8145623,33.1743803 98.0145623,33.4181136 C98.169434,33.6390367 98.2806135,33.9655597 98.3474853,34.3977648 C98.4139469,34.8293341 98.4473828,35.5659494 98.4473828,36.6065853 L98.4473828,50.2578875 C98.4473828,51.2541952 98.4024597,51.9901952 98.3140494,52.4662977 C98.2252289,52.9424003 98.0475879,53.3577849 97.7815366,53.7120413 C97.5364084,54.0439387 97.2535366,54.2820925 96.9321007,54.4258874 C96.6102546,54.5694772 96.1714854,54.6529643 95.6164085,54.6753233 L95.5501521,55.0406566 C95.9938444,55.1290669 96.3766136,55.2057848 96.6990751,55.2728618 C97.020511,55.3391182 97.3368187,55.410913 97.6482033,55.4888617 C97.9587674,55.5661951 98.2966135,55.6494771 98.6619469,55.7378874 C99.0262545,55.8262976 99.4625622,55.9370669 99.9704596,56.0701951 C100.500101,56.2031181 100.942357,56.3194258 101.295178,56.4191181 C101.648408,56.5186053 101.973947,56.6178874 102.272408,56.7175797 C102.569844,56.8178874 102.873844,56.9171694 103.182767,57.0170668 C103.492101,57.1163489 103.867075,57.2322463 104.308716,57.3655797 L104.308716,36.6065853 C104.308716,36.0970468 104.314254,35.6654776 104.325536,35.3109956 C104.336613,34.9567392 104.358972,34.6632418 104.391998,34.4311802 C104.425434,34.1985648 104.469947,34.0049854 104.525331,33.8496828 C104.580716,33.6944008 104.653126,33.5501751 104.741947,33.4181136 C104.918972,33.1743803 105.146665,33.002729 105.424613,32.9034674 C105.702152,32.8031392 106.140921,32.7313444 106.740306,32.6872008 L106.740306,32.2875905 L96.0162033,32.2875905" id="path20" fill="#283CA7" fill-rule="nonzero" transform="translate(101.145229, 44.826585) scale(-1, 1) rotate(-180.000000) translate(-101.145229, -44.826585) "></path>
                        <path d="M93.1316906,40.8964108 C92.2888188,40.4861544 91.4467675,40.280616 90.6049214,40.280616 C88.8096394,40.280616 87.7015369,41.3460929 87.2814343,43.4777441 C86.8820497,42.922298 86.549742,42.5116313 86.2836908,42.2449646 C86.0176395,41.979098 85.6853318,41.7124313 85.2865626,41.4459288 C84.17846,40.6912826 82.8490242,40.3134775 81.298255,40.3134775 C79.9023576,40.3134775 78.7608191,40.6469749 77.8744602,41.3126775 C76.9881012,41.979098 76.5454346,42.8553851 76.5454346,43.9440005 C76.5454346,45.3429543 77.3220499,46.4858261 78.8767166,47.3742158 C80.8964088,48.5066671 83.6943575,49.5941747 87.2693318,50.6382362 L87.2693318,52.3701336 C87.2693318,54.0126772 87.1909728,55.1116105 87.0358959,55.6670976 C86.9245112,56.0662771 86.7138446,56.3827899 86.4034856,56.6158156 C86.092101,56.8494566 85.725742,56.9657643 85.3044087,56.9657643 C84.9930241,56.9657643 84.6882036,56.9103797 84.3881011,56.7996104 C84.0886139,56.6878156 83.8272806,56.5440207 83.605537,56.3663797 C83.3171267,56.1218669 83.1005113,55.800431 82.9563062,55.4006361 C82.8114857,55.0008412 82.6843062,54.4453746 82.573537,53.7351182 L82.4402037,52.7360003 C82.3068703,51.6703593 81.9241011,50.8318978 81.2912806,50.2214978 C80.6584601,49.610667 79.875896,49.3057029 78.942973,49.3057029 C78.2547679,49.3057029 77.6943576,49.5222978 77.2611269,49.9549747 C76.8283064,50.388226 76.6118961,50.9487388 76.6118961,51.6374362 C76.6118961,53.2574567 77.8988704,54.6565131 80.4752806,55.8332515 C81.8516909,56.4771489 83.2781524,56.9713027 84.7550754,57.315713 C86.2313831,57.6595078 87.5883061,57.8316104 88.8256394,57.8316104 C90.1058445,57.8316104 91.1109727,57.5323284 91.8391778,56.9323284 C92.3247162,56.5329438 92.6615367,56.0609438 92.849229,55.5169438 C93.0365111,54.9729438 93.1306649,54.2122669 93.1306649,53.2360823 L93.1306649,45.5754876 C93.1306649,44.9317543 93.1417419,44.4710159 93.1641008,44.1934364 C93.1862547,43.9154877 93.2525111,43.6773338 93.3638957,43.4777441 C93.4521008,43.255221 93.6077931,43.083098 93.829947,42.9612313 C94.0521008,42.8389544 94.3076905,42.7780518 94.5961008,42.7780518 C94.7963059,42.7780518 94.9903572,42.805539 95.1790751,42.8613954 C95.3671777,42.9167595 95.617229,43.0330262 95.9282033,43.2113031 L96.1284085,42.9776621 C94.9733316,42.0004108 93.9747675,41.3073031 93.1316906,40.8964108 M87.2693318,50.2384824 C86.6250241,50.0158773 86.1478959,49.8436927 85.8369215,49.7224414 C85.5261523,49.5996106 85.215178,49.4165132 84.904819,49.1724517 C84.3491267,48.7946465 83.949537,48.3284517 83.7058447,47.7739696 C83.4613318,47.2184414 83.3390754,46.5192415 83.3390754,45.6758158 C83.3390754,44.6765338 83.5058447,43.9105851 83.839178,43.3774159 C84.1721011,42.8449646 84.6492293,42.5784621 85.2709728,42.5784621 C85.8925113,42.5784621 86.3811266,42.800021 86.7364087,43.2440826 C87.0912805,43.6883902 87.2693318,44.2988928 87.2693318,45.0762877 L87.2693318,50.2384824" id="path18" fill="#283CA7" fill-rule="nonzero" transform="translate(86.336922, 49.056113) scale(-1, 1) rotate(-180.000000) translate(-86.336922, -49.056113) "></path>
                        <path d="M74.3741526,45.859262 C74.2184603,45.4929235 74.0631782,45.1649441 73.9081013,44.8765748 C73.752409,44.588103 73.5801013,44.3105441 73.3913834,44.0441236 C73.2028706,43.7776826 72.9862552,43.4890672 72.7421526,43.1780928 C71.9645116,42.2458057 71.032204,41.5297031 69.9448194,41.0299288 C68.8568194,40.5305031 67.6574348,40.2808211 66.3476912,40.2808211 C65.103999,40.2808211 63.9442041,40.4974775 62.8676913,40.930257 C61.7905632,41.3635083 60.8578452,41.9628723 60.0697427,42.7290467 C59.2816401,43.4946056 58.6658453,44.3989954 58.2215376,45.4429953 C57.7768197,46.4861133 57.5552812,47.6185645 57.5552812,48.8403491 C57.5552812,50.0830568 57.7889222,51.2490054 58.2549735,52.3369849 C58.7212299,53.4244926 59.3649222,54.3737643 60.1864606,55.184431 C61.0079991,55.9948925 61.9682042,56.6332515 63.0672811,57.0993027 C64.1661528,57.5659694 65.3485118,57.7985848 66.6143579,57.7985848 C67.7243066,57.7985848 68.745845,57.6324309 69.6781527,57.2995079 C70.6104604,56.9661745 71.4319988,56.488431 72.142768,55.8675079 C72.8529219,55.2451489 73.4358962,54.4905849 73.8910757,53.6026874 C74.3462552,52.7143182 74.6406141,51.7260926 74.7739474,50.6385849 L63.7499477,50.6385849 C63.7718964,46.4861133 65.6260502,44.410462 69.3117937,44.410462 C70.7107681,44.410462 71.8982552,44.7542979 72.875486,45.4429953 C73.2527167,45.6870569 73.5522039,45.9366569 73.774768,46.1926774 C73.9963064,46.4471594 74.2744603,46.830503 74.6071782,47.3410671 L74.9072808,47.2083081 C74.7070757,46.6752825 74.5294346,46.2256004 74.3741526,45.859262 M68.8787681,52.0145439 C68.8787681,52.2836105 68.8732296,52.5241644 68.8621527,52.7377849 C68.8506655,52.9509336 68.8397938,53.1475695 68.8287168,53.3267285 C68.817845,53.5058874 68.8008194,53.7075079 68.7788707,53.9325746 C68.6900502,55.1438156 68.4678963,56.0248412 68.1130245,56.5747899 C67.7577425,57.123713 67.2471784,57.3994053 66.580922,57.3994053 C65.6486143,57.3994053 64.9433836,56.8547899 64.4662554,55.7667899 C63.9885118,54.6781746 63.7499477,53.1015592 63.7499477,51.0383388 L68.8787681,51.0383388 L68.8787681,52.0145439" id="path16" fill="#283CA7" fill-rule="nonzero" transform="translate(66.231281, 49.039703) scale(-1, 1) rotate(-180.000000) translate(-66.231281, -49.039703) "></path>
                        <path d="M61.6170247,57.532554 C61.339076,57.3545027 61.0451273,57.0773745 60.7347683,56.7001438 C60.3124093,56.1889643 59.8853324,55.5840412 59.4521017,54.8849643 C59.0192812,54.1850669 58.636512,53.4695797 58.3031786,52.7368618 L50.1768199,35.1517956 L43.9157944,49.5396311 L36.8221946,35.1517956 L28.8621742,52.8031182 C28.5511999,53.5134772 28.1738871,54.2351182 27.729723,54.9682464 C27.2854974,55.7009643 26.8747692,56.2888617 26.4974358,56.7329643 C26.1865435,57.1104002 25.8531241,57.3938873 25.4982379,57.5824002 C25.1429497,57.7707078 24.6433497,57.9542976 24,58.1319386 L24,58.4648617 L36.2222766,58.4648617 L36.2222766,58.1319386 C35.7336612,57.9323489 35.3842869,57.7042463 35.1731484,57.449272 C34.962092,57.1936822 34.8567382,56.8548104 34.8567382,56.4336822 C34.8567382,56.0781951 34.9570459,55.6675284 35.1567382,55.201272 L40.3522457,43.2780108 L43.7491277,50.1055593 L41.7841431,54.7017848 C41.2067278,56.0336822 40.6627483,56.9551181 40.1521637,57.4662976 C39.9744406,57.6433232 39.7693124,57.782195 39.5362253,57.8818873 C39.3031996,57.982195 38.9752407,58.0656822 38.5535176,58.1319386 L38.5535176,58.4648617 L50.6100506,58.4648617 L50.6100506,58.1319386 C49.4112814,57.9323489 48.8114866,57.2880412 48.8114866,56.2004515 C48.8114866,55.9339899 48.8722045,55.567631 48.9944609,55.1009643 C49.1163071,54.6349131 49.2779481,54.1571695 49.477743,53.6691695 L53.6406146,43.7776005 L54.4730249,45.4764723 C55.3171274,47.2298466 55.9663582,48.8508311 56.4215377,50.338708 C56.8763069,51.8260926 57.1044094,53.1366567 57.1044094,54.2685541 C57.1044094,55.5561438 56.8262556,56.5444515 56.2717941,57.2326566 C56.0715889,57.4767591 55.8496402,57.6599386 55.6055377,57.782195 C55.3610249,57.903836 54.9946659,58.0207591 54.5064608,58.1319386 L54.5064608,58.4648617 L62.8658452,58.4648617 L62.8658452,58.1319386 C62.3107683,57.9099899 61.8945632,57.7097848 61.6170247,57.532554" id="path14" fill="#283CA7" fill-rule="nonzero" transform="translate(43.432923, 46.808329) scale(-1, 1) rotate(-180.000000) translate(-43.432923, -46.808329) "></path>
                    </g>
                </g>
            </g>
        </g>
    </g>
</svg>