<?xml version="1.0" encoding="UTF-8"?>
<svg width="223px" height="32px" viewBox="0 0 223 32" version="1.1" xmlns="http://www.w3.org/2000/svg" xmlns:xlink="http://www.w3.org/1999/xlink">
    <!-- Generator: Sketch 49.3 (51167) - http://www.bohemiancoding.com/sketch -->
    <title>Logo/Wealthsimple</title>
    <desc>Created with Sketch.</desc>
    <defs></defs>
    <g id="Women-and-Color" stroke="none" stroke-width="1" fill="none" fill-rule="evenodd">
        <g id="Homepage" transform="translate(-444.000000, -2636.000000)">
            <g id="Footer" transform="translate(0.000000, 2539.000000)">
                <g id="Premier-Partners">
                    <g id="Logo/Wealthsimple" transform="translate(429.000000, 65.000000)">
                        <rect id="Spacing" x="0" y="0" width="254" height="96"></rect>
                        <path d="M236.825635,45.859262 C236.669738,45.4929235 236.515892,45.1649441 236.359994,44.8765748 C236.204097,44.588103 236.031789,44.3105441 235.843071,44.0441236 C235.654353,43.7776826 235.438969,43.4890672 235.194866,43.1780928 C234.41743,42.2458057 233.484097,41.5297031 232.396918,41.0299288 C231.309738,40.5305031 230.109738,40.2808211 228.80102,40.2808211 C227.555892,40.2808211 226.396918,40.4974775 225.319995,40.930257 C224.243072,41.3635083 223.309738,41.9628723 222.522046,42.7290467 C221.734354,43.4946056 221.116918,44.3989954 220.673841,45.4429953 C220.228713,46.4861133 220.007585,47.6185645 220.007585,48.8403491 C220.007585,50.0830568 220.241021,51.2490054 220.706662,52.3369849 C221.174354,53.4244926 221.816405,54.3737643 222.638969,55.184431 C223.459482,55.9948925 224.419482,56.6332515 225.518969,57.0993027 C226.618456,57.5659694 227.799995,57.7985848 229.065636,57.7985848 C230.177431,57.7985848 231.196918,57.6324309 232.130251,57.2995079 C233.063584,56.9661745 233.884097,56.488431 234.595892,55.8675079 C235.305636,55.2451489 235.8882,54.4905849 236.343584,53.6026874 C236.798969,52.7143182 237.092302,51.7260926 237.225635,50.6385849 L226.202046,50.6385849 C226.22461,46.4861133 228.078969,44.410462 231.765123,44.410462 C233.164097,44.410462 234.349738,44.7542979 235.3282,45.4429953 C235.705636,45.6870569 236.005123,45.9366569 236.226661,46.1926774 C236.4482,46.4471594 236.727174,46.830503 237.059482,47.3410671 L237.358969,47.2083081 C237.159994,46.6752825 236.981533,46.2256004 236.825635,45.859262 M231.330251,52.0145439 C231.330251,52.2836105 231.326148,52.5241644 231.313841,52.7377849 C231.303584,52.9509336 231.291277,53.1475695 231.28102,53.3267285 C231.270764,53.5058874 231.252302,53.7075079 231.231789,53.9325746 C231.141533,55.1438156 230.919995,56.0248412 230.565123,56.5747899 C230.210251,57.123713 229.699482,57.3994053 229.032815,57.3994053 C228.101533,57.3994053 227.395892,56.8547899 226.917943,55.7667899 C226.439995,54.6781746 226.202046,53.1015592 226.202046,51.0383388 L231.330251,51.0383388 L231.330251,52.0145439" id="path36" fill="#283CA7" fill-rule="nonzero" transform="translate(228.683277, 49.039703) scale(-1, 1) rotate(-180.000000) translate(-228.683277, -49.039703) "></path>
                        <path d="M209.741534,32.2875905 L209.741534,32.6872008 C210.318559,32.7313444 210.745841,32.8031392 211.02379,32.9034674 C211.301328,33.002729 211.539893,33.1743803 211.739893,33.4181136 C211.894764,33.6390367 212.006559,33.9655597 212.072816,34.3977648 C212.139277,34.8293341 212.172713,35.5659494 212.172713,36.6065853 L212.172713,50.2578875 C212.172713,51.2541952 212.12779,51.9901952 212.03938,52.4662977 C211.950559,52.9424003 211.772918,53.3577849 211.506867,53.7120413 C211.261739,54.0439387 210.978867,54.2820925 210.657431,54.4258874 C210.335585,54.5694772 209.896816,54.6529643 209.341739,54.6753233 L209.275482,55.0406566 C209.719175,55.1290669 210.101944,55.2057848 210.424405,55.2728618 C210.745841,55.3391182 211.062149,55.410913 211.373534,55.4888617 C211.684098,55.5661951 212.021944,55.6494771 212.387277,55.7378874 C212.751585,55.8262976 213.187892,55.9370669 213.695995,56.0701951 C214.225431,56.2031181 214.667687,56.3194258 215.020508,56.4191181 C215.373944,56.5186053 215.699277,56.6178874 215.997739,56.7175797 C216.295174,56.8178874 216.599174,56.9171694 216.908098,57.0170668 C217.217431,57.1163489 217.592405,57.2322463 218.034046,57.3655797 L218.034046,36.6065853 C218.034046,36.0970468 218.039585,35.6654776 218.051072,35.3109956 C218.061944,34.9567392 218.084508,34.6632418 218.117328,34.4311802 C218.150764,34.1985648 218.195277,34.0049854 218.250662,33.8496828 C218.306046,33.6944008 218.378456,33.5501751 218.467277,33.4181136 C218.644918,33.1743803 218.871995,33.002729 219.149944,32.9034674 C219.427482,32.8031392 219.866251,32.7313444 220.46461,32.6872008 L220.46461,32.2875905 L209.741534,32.2875905" id="path34" fill="#283CA7" fill-rule="nonzero" transform="translate(214.870046, 44.826585) scale(-1, 1) rotate(-180.000000) translate(-214.870046, -44.826585) "></path>
                        <path d="M209.523072,52.2200003 C209.11097,51.0541337 208.548918,50.038585 207.836713,49.1724927 C207.123482,48.3067081 206.288405,47.6292927 205.330662,47.1413132 C204.373534,46.6530876 203.337841,46.4079799 202.224816,46.4079799 C201.578662,46.4079799 201.016611,46.4974158 200.538047,46.6746466 C200.058867,46.8522876 199.529842,47.1626261 198.95138,47.607426 L198.95138,44.5649646 C198.95138,44.0598979 198.956303,43.6381133 198.96779,43.2968415 C198.978867,42.9573339 199.006354,42.6664826 199.051072,42.4248211 C199.095175,42.1831452 199.15097,41.9860293 199.217842,41.8324231 C199.284303,41.678737 199.372508,41.5360293 199.483893,41.4047001 C199.684098,41.1631124 199.950559,40.9934016 200.283483,40.8941216 C200.616406,40.7958857 201.137842,40.7244908 201.848611,40.680019 L201.848611,40.2808211 L189.992201,40.2808211 L189.992201,40.680019 C190.746867,40.7468478 191.291278,40.8401954 191.624201,40.9620703 C191.957124,41.0837052 192.245534,41.2998918 192.490047,41.6098283 C192.71179,41.853338 192.856406,42.1852272 192.923278,42.6059903 C192.967175,42.783139 193.000611,42.96078 193.023175,43.1369851 C193.044508,43.3146262 193.061534,43.5248826 193.073021,43.7684108 C193.084098,44.0119184 193.089431,44.3224825 193.089431,44.6986877 L193.089431,56.5870771 C193.089431,57.0741745 193.077944,57.5004514 193.055996,57.8657643 C193.033637,58.2310566 193.000611,58.5465232 192.956303,58.8120617 C192.91138,59.0775386 192.850867,59.310154 192.773124,59.5092719 C192.695175,59.7088616 192.589944,59.8970873 192.456611,60.0742565 C192.212098,60.3841847 191.929021,60.6112616 191.60779,60.7545437 C191.285329,60.8982565 190.835688,60.9926155 190.258662,61.0375385 L190.225226,61.369436 C190.64697,61.4578462 191.018867,61.5405129 191.341124,61.6178462 C191.66256,61.6957949 191.979072,61.779077 192.290457,61.8674872 C192.600816,61.9558975 192.938867,62.0500513 193.304201,62.1499488 C193.668508,62.2492308 194.116098,62.376 194.646149,62.5312821 C195.17579,62.6865641 195.617021,62.8133334 195.970252,62.9130257 C196.323688,63.0133334 196.649636,63.1126154 196.947483,63.2125128 C197.245534,63.3117949 197.549329,63.4172308 197.858252,63.528 C198.167175,63.638359 198.531688,63.7714872 198.95138,63.9261538 L198.95138,61.7616411 C199.86379,62.5386667 200.715688,63.0937436 201.506252,63.4270769 C202.296816,63.76 203.115277,63.9261538 203.961841,63.9261538 C204.874662,63.9261538 205.709534,63.7316923 206.466662,63.3437949 C207.22379,62.9550769 207.875072,62.411077 208.421123,61.7117949 C208.966559,61.0125129 209.389328,60.1795488 209.690252,59.2138258 C209.990764,58.2480412 210.141534,57.1764925 210.141534,56.0001233 C210.141534,54.6456413 209.93538,53.3853951 209.523072,52.2200003 M203.108303,60.1466052 C202.571688,61.4227693 201.834662,62.0615385 200.89579,62.0615385 C200.627277,62.0615385 200.35938,62.0057436 200.091277,61.8949744 C199.822765,61.7835898 199.442867,61.5731283 198.95138,61.2621539 L198.95138,48.1405132 C199.442867,47.6512619 199.990559,47.4071799 200.593842,47.4071799 C201.644508,47.4071799 202.460508,48.0621542 203.041841,49.3720824 C203.622765,50.6822567 203.913431,52.51399 203.913431,54.867672 C203.913431,57.110154 203.644918,58.869436 203.108303,60.1466052" id="path32" fill="#283CA7" fill-rule="nonzero" transform="translate(200.066867, 52.103487) scale(-1, 1) rotate(-180.000000) translate(-200.066867, -52.103487) "></path>
                        <path d="M181.100098,40.280616 L181.100098,40.6802262 C181.721432,40.7467288 182.137637,40.9354262 182.349329,41.2464006 C182.559996,41.5571493 182.665227,42.179098 182.665227,43.1113851 L182.665227,51.5375798 C182.665227,52.3141952 182.637329,52.9031387 182.581945,53.3024208 C182.525534,53.7021746 182.419278,54.0240413 182.26256,54.2685541 C182.128201,54.4902977 181.921021,54.6679387 181.642047,54.8010669 C181.362047,54.9344002 181.076714,55.001272 180.785637,55.001272 C180.405329,55.001272 180.025022,54.9065028 179.644714,54.7177848 C179.264406,54.529272 178.828304,54.2127592 178.335586,53.7690874 L178.335586,43.1113851 C178.335586,42.6453544 178.357534,42.2624211 178.402457,41.9625031 C178.44697,41.6625852 178.524304,41.4234057 178.635688,41.2464006 C178.746457,41.0685134 178.90215,40.9354262 179.101739,40.8466467 C179.301945,40.7577852 179.568406,40.7024211 179.901329,40.6802262 L179.901329,40.280616 L170.94256,40.280616 L170.94256,40.6802262 C171.252919,40.7024211 171.508509,40.7577852 171.708099,40.8466467 C171.908304,40.9354262 172.06297,41.0685134 172.174355,41.2464006 C172.28574,41.4234057 172.363073,41.6625852 172.407996,41.9625031 C172.451893,42.2624211 172.474252,42.6453544 172.474252,43.1113851 L172.474252,51.5375798 C172.474252,52.2922464 172.446355,52.8532105 172.39097,53.2190772 C172.335586,53.585908 172.218663,53.9127592 172.041637,54.2017643 C171.908304,54.4457849 171.702765,54.6349131 171.425227,54.767631 C171.147278,54.9009643 170.842253,54.9678361 170.509329,54.9678361 C170.131483,54.9678361 169.760201,54.8790156 169.393842,54.7013746 C169.027073,54.5231182 168.610868,54.2127592 168.144612,53.7690874 L168.144612,43.1113851 C168.144612,42.6453544 168.16656,42.2624211 168.211483,41.9625031 C168.255381,41.6625852 168.33333,41.4234057 168.444714,41.2464006 C168.555483,41.0685134 168.716099,40.9354262 168.927176,40.8466467 C169.138458,40.7577852 169.39897,40.7024211 169.70974,40.6802262 L169.70974,40.280616 L159.585637,40.280616 L159.585637,40.6802262 C160.229125,40.7237339 160.706663,40.7957544 161.017637,40.8954467 C161.328612,40.9953647 161.583996,41.1664416 161.783791,41.4101134 C161.983381,41.6536211 162.111176,41.9851082 162.16656,42.4051287 C162.221945,42.825498 162.249842,43.5547287 162.249842,44.5943184 L162.249842,50.0348721 C162.249842,50.5214773 162.238355,50.9467285 162.216407,51.311467 C162.194458,51.6763695 162.161022,51.9917541 162.116714,52.2572926 C162.072201,52.5222772 162.010868,52.7548926 161.933535,52.9540105 C161.855586,53.1526567 161.750355,53.3413541 161.617022,53.518031 C161.372509,53.8269336 161.089432,54.0540105 160.767586,54.1977643 C160.44574,54.3415797 159.995894,54.4353233 159.419073,54.4798361 L159.385637,54.8115284 C159.63015,54.855631 159.84615,54.8995284 160.034868,54.9438361 C160.223586,54.9883489 160.37333,55.0322464 160.484509,55.0771695 C161.017637,55.2088618 161.528201,55.3362464 162.016817,55.4578874 C162.504817,55.5797335 162.993637,55.7124515 163.482048,55.8562464 C163.970253,55.9994258 164.481432,56.1547079 165.014355,56.3208617 C165.546868,56.4861951 166.135381,56.6798361 166.779073,56.9013745 L168.144612,57.3655797 L168.144612,54.2017643 C168.344817,54.4018874 168.522047,54.5791182 168.67774,54.7348105 C168.832817,54.8900925 168.988099,55.0287592 169.143791,55.1510156 C169.299073,55.2728618 169.460304,55.3951182 169.627073,55.5173746 C169.793227,55.6390156 169.998355,55.7778874 170.242868,55.9335797 C171.019894,56.4441438 171.73456,56.8105027 172.388509,57.0326566 C173.041842,57.254195 173.721432,57.3655797 174.428304,57.3655797 C176.635688,57.3655797 177.938457,56.3108104 178.335586,54.2017643 C178.580098,54.4234259 178.790765,54.6180925 178.969022,54.7846566 C179.146252,54.9508105 179.312816,55.1011695 179.468098,55.2342977 C179.62338,55.367631 179.772919,55.4894771 179.917739,55.6006566 C180.061945,55.7114258 180.222765,55.8221951 180.400816,55.9335797 C181.111175,56.4217848 181.821329,56.7830156 182.532098,57.0160412 C183.242252,57.249272 183.953021,57.3655797 184.663586,57.3655797 C187.216406,57.3655797 188.493739,55.7953233 188.493739,52.6550567 L188.493739,43.9309338 L188.527175,43.1013749 C188.549124,42.6148313 188.565534,42.2669134 188.577021,42.0568211 C188.588098,41.8461544 188.648816,41.6536211 188.760201,41.4763698 C188.893534,41.2328621 189.087585,41.0507288 189.343175,40.9288621 C189.598149,40.8069749 189.980919,40.7237339 190.492098,40.6802262 L190.492098,40.280616 L181.100098,40.280616" id="path30" fill="#283CA7" fill-rule="nonzero" transform="translate(174.938868, 48.823098) scale(-1, 1) rotate(-180.000000) translate(-174.938868, -48.823098) "></path>
                        <path d="M149.061535,32.1544623 L149.061535,32.5540726 C149.66092,32.5982162 150.099279,32.6704008 150.377227,32.7703392 C150.654766,32.8705649 150.881843,33.0422777 151.059894,33.2868315 C151.237125,33.5309136 151.359381,33.8638366 151.426253,34.2859495 C151.492715,34.7073443 151.52615,35.4400417 151.52615,36.4841033 L151.52615,41.9461339 C151.52615,42.4342775 151.514663,42.8619082 151.492715,43.2282672 C151.47015,43.5946056 151.431176,43.9110364 151.376407,44.1770672 C151.320407,44.4435697 151.25415,44.6771492 151.176202,44.8767389 C151.098458,45.0764107 150.993022,45.2651287 150.859894,45.4427697 C150.615176,45.753662 150.332304,45.9807389 150.010253,46.1255799 C149.688407,46.2697851 149.238766,46.364144 148.66174,46.4084517 L148.628304,46.741785 C149.072612,46.8301953 149.455381,46.9136825 149.777843,46.9914261 C150.099279,47.0693748 150.415586,47.1526568 150.726561,47.2414773 C151.037535,47.3298876 151.376407,47.4242466 151.74215,47.5245543 C152.10892,47.6242466 152.546663,47.7516312 153.057843,47.9073235 C153.568407,48.0624004 154.001638,48.1908106 154.35692,48.2900927 C154.711791,48.3904004 155.044714,48.4902978 155.356099,48.5899901 C155.666458,48.6898876 155.977432,48.7951183 156.288407,48.9065029 C156.599381,49.0172722 156.96574,49.1506055 157.387484,49.3062978 L157.387484,36.4841033 C157.387484,35.9729648 157.393022,35.5403699 157.404304,35.1854776 C157.415381,34.8295392 157.43733,34.5356315 157.470766,34.3026264 C157.504202,34.0693751 157.554048,33.874729 157.620509,33.719611 C157.687381,33.5639187 157.764714,33.4201649 157.853535,33.2868315 C158.031176,33.0422777 158.258868,32.8705649 158.536817,32.7703392 C158.81374,32.6704008 159.252509,32.5982162 159.851894,32.5540726 L159.851894,32.1544623 L149.061535,32.1544623 Z M157.337432,52.4535798 C157.14892,52.020349 156.89333,51.6484516 156.571484,51.3374772 C156.249432,51.0265029 155.872202,50.7766567 155.439381,50.5883491 C155.006355,50.3998362 154.545022,50.3054773 154.057022,50.3054773 C153.568407,50.3054773 153.113227,50.3998362 152.691484,50.5883491 C152.26974,50.7766567 151.897432,51.0265029 151.575997,51.3374772 C151.25415,51.6484516 150.998561,52.020349 150.809843,52.4535798 C150.62133,52.8861951 150.526971,53.3469131 150.526971,53.8355285 C150.526971,54.3235284 150.62133,54.7793233 150.809843,55.2010669 C150.998561,55.6228105 151.247997,55.9947079 151.559586,56.316554 C151.869945,56.6384002 152.242253,56.8939899 152.675073,57.0825027 C153.108099,57.2712207 153.568407,57.3655797 154.057022,57.3655797 C154.545022,57.3655797 155.006355,57.2712207 155.439381,57.0825027 C155.872202,56.8939899 156.249432,56.6439386 156.571484,56.3333745 C156.89333,56.0219899 157.14892,55.6507079 157.337432,55.2180925 C157.52574,54.7846566 157.620509,54.3235284 157.620509,53.8355285 C157.620509,53.3469131 157.52574,52.8861951 157.337432,52.4535798 Z" id="path28" fill="#283CA7" fill-rule="nonzero" transform="translate(154.240099, 44.760021) scale(-1, 1) rotate(-180.000000) translate(-154.240099, -44.760021) "></path>
                        <path d="M148.012715,43.9011287 C147.646356,43.1558569 147.135176,42.5161031 146.481022,41.9821339 C145.825638,41.4485544 145.042663,41.0313442 144.132715,40.7308519 C143.221946,40.4313442 142.234253,40.280616 141.168612,40.280616 C140.857638,40.280616 140.552817,40.2912621 140.252715,40.3115493 C139.953433,40.3320621 139.625023,40.3734775 139.270151,40.4344621 C138.915279,40.4963903 138.526356,40.5745237 138.104612,40.6699493 C137.682869,40.7657031 137.182971,40.9021749 136.605946,41.0802057 C136.2281,41.1909544 135.923074,41.279816 135.690048,41.3466467 C135.457023,41.4130672 135.240407,41.4795698 135.040818,41.5464826 C134.840612,41.612657 134.646561,41.6795698 134.457843,41.7459903 C134.269125,41.8129031 134.041638,41.9012929 133.775177,42.0125134 L133.442253,48.6399799 L133.775177,48.6399799 C134.3081,47.4186671 134.890459,46.3141953 135.523894,45.3265235 C136.156305,44.3382364 136.822561,43.4998364 137.521843,42.8121031 C138.221535,42.1232416 138.931689,41.5963288 139.65333,41.2298877 C140.374561,40.8635493 141.090869,40.6803698 141.801433,40.6803698 C142.534151,40.6803698 143.122048,40.9025647 143.566766,41.3476724 C144.010458,41.7923903 144.232612,42.3708313 144.232612,43.0830159 C144.232612,43.8168415 144.00451,44.4172313 143.54974,44.8849441 C143.094561,45.3520005 142.278561,45.7861338 141.102151,46.186462 L139.470151,46.7539286 C137.338664,47.4875902 135.817843,48.2940722 134.907484,49.1730055 C133.996715,50.0513644 133.541946,51.1024824 133.541946,52.3267695 C133.541946,53.1049028 133.725125,53.8280413 134.091484,54.49479 C134.457843,55.162031 134.95733,55.7404925 135.590356,56.2301335 C136.223176,56.7197745 136.972305,57.1035694 137.838151,57.3815181 C138.704202,57.659672 139.647997,57.7987489 140.669125,57.7987489 C141.55692,57.7987489 142.456202,57.7318771 143.366561,57.5991591 C144.27692,57.4660309 145.353433,57.221313 146.59733,56.8660309 L146.930663,51.4044106 L146.59733,51.4044106 C146.241843,52.2703593 145.819689,53.069949 145.331484,53.8025644 C144.842869,54.53479 144.321433,55.1675694 143.766356,55.7006976 C143.211484,56.2336207 142.64492,56.6498258 142.067894,56.949313 C141.490048,57.2494156 140.935587,57.398954 140.402458,57.398954 C139.758151,57.398954 139.209228,57.1819284 138.754048,56.7482874 C138.298869,56.314031 138.071176,55.786031 138.071176,55.163672 C138.071176,53.8285336 139.125946,52.816349 141.235484,52.1266054 L143.499894,51.3929644 C145.276099,50.8140311 146.563894,50.1242875 147.363279,49.3237337 C148.162458,48.5226876 148.562253,47.5220312 148.562253,46.3206774 C148.562253,45.4528005 148.379074,44.6463184 148.012715,43.9011287" id="path26" fill="#283CA7" fill-rule="nonzero" transform="translate(141.002253, 49.039682) scale(-1, 1) rotate(-180.000000) translate(-141.002253, -49.039682) "></path>
                        <path d="M123.484305,32.2875905 L123.484305,32.6872008 C124.105638,32.7537033 124.521843,32.9424008 124.73292,33.2533751 C124.943997,33.5641238 125.049433,34.1860725 125.049433,35.1183597 L125.049433,43.9109133 C125.049433,44.5103595 125.021331,44.960021 124.965536,45.2594671 C124.909741,45.5593851 124.792408,45.8309338 124.613125,46.0754876 C124.455997,46.2970671 124.243895,46.4753235 123.975382,46.6084517 C123.706869,46.741785 123.427279,46.8080415 123.136818,46.8080415 C122.75651,46.8080415 122.359792,46.7132722 121.946049,46.5251697 C121.53169,46.3364517 121.06769,46.0200415 120.553638,45.5758979 L120.553638,34.918852 C120.553638,34.6523289 120.56451,34.4295802 120.586459,34.2525751 C120.608408,34.0746879 120.630972,33.9305443 120.653331,33.8193238 C120.674869,33.7079392 120.708305,33.597211 120.753228,33.4864008 C120.863997,33.241929 121.01969,33.0587495 121.219279,32.9368623 C121.419485,32.8146059 121.718972,32.7313444 122.118767,32.6872008 L122.118767,32.2875905 L112.027485,32.2875905 L112.027485,32.6872008 C112.671382,32.7313444 113.14851,32.8031392 113.459485,32.9034674 C113.770459,33.002729 114.025844,33.1743803 114.225639,33.4181136 C114.40328,33.6615597 114.525536,33.9934366 114.591998,34.4141956 C114.658869,34.8349546 114.69169,35.5659494 114.69169,36.6065853 L114.69169,50.2578875 C114.69169,51.2541952 114.646767,51.9901952 114.558562,52.4662977 C114.469536,52.9424003 114.302972,53.3577849 114.058869,53.7120413 C113.814357,54.0439387 113.53128,54.2820925 113.209844,54.4258874 C112.887587,54.5694772 112.437741,54.6529643 111.860921,54.6753233 L111.827485,55.0406566 C112.294151,55.1290669 112.704408,55.2119387 113.0601,55.289272 C113.414972,55.3670156 113.753433,55.4445541 114.07528,55.5218874 C114.397331,55.599631 114.729639,55.6831182 115.071997,55.7713233 C115.414356,55.8597335 115.806151,55.9594258 116.248408,56.0701951 C116.711587,56.2031181 117.114254,56.3138874 117.456613,56.4027079 C117.798972,56.4911181 118.12492,56.5844515 118.433844,56.6847592 C118.742767,56.7844515 119.062767,56.8837335 119.394254,56.9836309 C119.725126,57.082913 120.111382,57.2107079 120.553638,57.3655797 L120.553638,46.0730056 C120.863997,46.338503 121.130459,46.5600415 121.352613,46.7372722 C121.574151,46.9138876 121.774356,47.0691697 121.951997,47.202503 C122.129638,47.3348107 122.296408,47.4564517 122.45169,47.5672209 C122.606767,47.6775799 122.784408,47.799426 122.984613,47.9325542 C123.761638,48.4416824 124.488408,48.8129645 125.166151,49.0455799 C125.842869,49.2771696 126.536613,49.3938875 127.247382,49.3938875 C128.468715,49.3938875 129.389946,49.017067 130.011895,48.2650671 C130.322869,47.8882466 130.544818,47.4400414 130.677741,46.9194261 C130.810869,46.3994261 130.877741,45.6737235 130.877741,44.7439184 L130.877741,35.9424007 L130.911177,35.1113853 C130.932715,34.6248623 130.949741,34.2754879 130.961228,34.0652315 C130.9721,33.8552213 131.033023,33.6615597 131.144202,33.4843905 C131.277536,33.2408828 131.471177,33.0581136 131.726766,32.9364726 C131.981741,32.8146059 132.365125,32.7313444 132.8761,32.6872008 L132.8761,32.2875905 L123.484305,32.2875905" id="path24" fill="#283CA7" fill-rule="nonzero" transform="translate(122.351792, 44.826585) scale(-1, 1) rotate(-180.000000) translate(-122.351792, -44.826585) "></path>
                        <path d="M108.480613,34.4865648 C107.581126,34.1086777 106.667895,33.9191802 105.739075,33.9191802 C104.436511,33.9191802 103.343382,34.2754264 102.460921,34.9870571 C101.908511,35.4317546 101.522254,35.9882469 101.301536,36.6562058 C101.081023,37.3228725 100.970665,38.2691083 100.970665,39.4929852 L100.970665,49.4723901 L96.8742544,49.4723901 C97.3403056,49.6723901 97.7509723,49.8606978 98.1064595,50.0387491 C98.4613312,50.2159798 98.7891261,50.3936209 99.0886133,50.5712619 C99.3885107,50.7489029 99.6886133,50.9376208 99.9881004,51.137826 C100.287998,51.3374157 100.636921,51.5815183 101.036511,51.8705439 C102.030357,52.6030567 102.9241,53.3466464 103.719177,54.1019285 C104.050049,54.4122874 104.342562,54.6953643 104.596716,54.9507489 C104.850664,55.2059284 105.092716,55.47239 105.325331,55.7503387 C105.557331,56.0278771 105.788921,56.3273643 106.021126,56.6492104 C106.252716,56.9712617 106.523075,57.3540309 106.831998,57.7987489 L106.831998,51.0044926 L111.02851,51.0044926 L110.195895,49.4723901 L106.831998,49.4723901 L106.831998,39.8597955 C106.831998,38.5921852 107.042664,37.685293 107.464818,37.139693 C107.886562,36.5946673 108.597331,36.3222161 109.59651,36.3222161 C109.906869,36.3222161 110.195895,36.3441853 110.462357,36.3891289 C110.729023,36.4336007 111.072818,36.5332725 111.494562,36.6896212 L111.694767,36.4225443 C110.451075,35.510134 109.379895,34.8647802 108.480613,34.4865648" id="path22" fill="#283CA7" fill-rule="nonzero" transform="translate(104.284511, 45.858965) scale(-1, 1) rotate(-180.000000) translate(-104.284511, -45.858965) "></path>
                        <path d="M87.0162033,32.2875905 L87.0162033,32.6872008 C87.593229,32.7313444 88.020511,32.8031392 88.2984597,32.9034674 C88.5759982,33.002729 88.8145623,33.1743803 89.0145623,33.4181136 C89.169434,33.6390367 89.2806135,33.9655597 89.3474853,34.3977648 C89.4139469,34.8293341 89.4473828,35.5659494 89.4473828,36.6065853 L89.4473828,50.2578875 C89.4473828,51.2541952 89.4024597,51.9901952 89.3140494,52.4662977 C89.2252289,52.9424003 89.0475879,53.3577849 88.7815366,53.7120413 C88.5364084,54.0439387 88.2535366,54.2820925 87.9321007,54.4258874 C87.6102546,54.5694772 87.1714854,54.6529643 86.6164085,54.6753233 L86.5501521,55.0406566 C86.9938444,55.1290669 87.3766136,55.2057848 87.6990751,55.2728618 C88.020511,55.3391182 88.3368187,55.410913 88.6482033,55.4888617 C88.9587674,55.5661951 89.2966135,55.6494771 89.6619469,55.7378874 C90.0262545,55.8262976 90.4625622,55.9370669 90.9704596,56.0701951 C91.5001007,56.2031181 91.9423571,56.3194258 92.2951776,56.4191181 C92.6484083,56.5186053 92.9739468,56.6178874 93.2724083,56.7175797 C93.5698442,56.8178874 93.8738442,56.9171694 94.1827673,57.0170668 C94.4921006,57.1163489 94.8670749,57.2322463 95.3087159,57.3655797 L95.3087159,36.6065853 C95.3087159,36.0970468 95.3142544,35.6654776 95.3255365,35.3109956 C95.3366134,34.9567392 95.3589723,34.6632418 95.391998,34.4311802 C95.4254339,34.1985648 95.4699467,34.0049854 95.5253313,33.8496828 C95.5807159,33.6944008 95.6531262,33.5501751 95.7419467,33.4181136 C95.9189723,33.1743803 96.1466646,33.002729 96.4246133,32.9034674 C96.7021518,32.8031392 97.140921,32.7313444 97.7403056,32.6872008 L97.7403056,32.2875905 L87.0162033,32.2875905" id="path20" fill="#283CA7" fill-rule="nonzero" transform="translate(92.145229, 44.826585) scale(-1, 1) rotate(-180.000000) translate(-92.145229, -44.826585) "></path>
                        <path d="M84.1316906,40.8964108 C83.2888188,40.4861544 82.4467675,40.280616 81.6049214,40.280616 C79.8096394,40.280616 78.7015369,41.3460929 78.2814343,43.4777441 C77.8820497,42.922298 77.549742,42.5116313 77.2836908,42.2449646 C77.0176395,41.979098 76.6853318,41.7124313 76.2865626,41.4459288 C75.17846,40.6912826 73.8490242,40.3134775 72.298255,40.3134775 C70.9023576,40.3134775 69.7608191,40.6469749 68.8744602,41.3126775 C67.9881012,41.979098 67.5454346,42.8553851 67.5454346,43.9440005 C67.5454346,45.3429543 68.3220499,46.4858261 69.8767166,47.3742158 C71.8964088,48.5066671 74.6943575,49.5941747 78.2693318,50.6382362 L78.2693318,52.3701336 C78.2693318,54.0126772 78.1909728,55.1116105 78.0358959,55.6670976 C77.9245112,56.0662771 77.7138446,56.3827899 77.4034856,56.6158156 C77.092101,56.8494566 76.725742,56.9657643 76.3044087,56.9657643 C75.9930241,56.9657643 75.6882036,56.9103797 75.3881011,56.7996104 C75.0886139,56.6878156 74.8272806,56.5440207 74.605537,56.3663797 C74.3171267,56.1218669 74.1005113,55.800431 73.9563062,55.4006361 C73.8114857,55.0008412 73.6843062,54.4453746 73.573537,53.7351182 L73.4402037,52.7360003 C73.3068703,51.6703593 72.9241011,50.8318978 72.2912806,50.2214978 C71.6584601,49.610667 70.875896,49.3057029 69.942973,49.3057029 C69.2547679,49.3057029 68.6943576,49.5222978 68.2611269,49.9549747 C67.8283064,50.388226 67.6118961,50.9487388 67.6118961,51.6374362 C67.6118961,53.2574567 68.8988704,54.6565131 71.4752806,55.8332515 C72.8516909,56.4771489 74.2781524,56.9713027 75.7550754,57.315713 C77.2313831,57.6595078 78.5883061,57.8316104 79.8256394,57.8316104 C81.1058445,57.8316104 82.1109727,57.5323284 82.8391778,56.9323284 C83.3247162,56.5329438 83.6615367,56.0609438 83.849229,55.5169438 C84.0365111,54.9729438 84.1306649,54.2122669 84.1306649,53.2360823 L84.1306649,45.5754876 C84.1306649,44.9317543 84.1417419,44.4710159 84.1641008,44.1934364 C84.1862547,43.9154877 84.2525111,43.6773338 84.3638957,43.4777441 C84.4521008,43.255221 84.6077931,43.083098 84.829947,42.9612313 C85.0521008,42.8389544 85.3076905,42.7780518 85.5961008,42.7780518 C85.7963059,42.7780518 85.9903572,42.805539 86.1790751,42.8613954 C86.3671777,42.9167595 86.617229,43.0330262 86.9282033,43.2113031 L87.1284085,42.9776621 C85.9733316,42.0004108 84.9747675,41.3073031 84.1316906,40.8964108 M78.2693318,50.2384824 C77.6250241,50.0158773 77.1478959,49.8436927 76.8369215,49.7224414 C76.5261523,49.5996106 76.215178,49.4165132 75.904819,49.1724517 C75.3491267,48.7946465 74.949537,48.3284517 74.7058447,47.7739696 C74.4613318,47.2184414 74.3390754,46.5192415 74.3390754,45.6758158 C74.3390754,44.6765338 74.5058447,43.9105851 74.839178,43.3774159 C75.1721011,42.8449646 75.6492293,42.5784621 76.2709728,42.5784621 C76.8925113,42.5784621 77.3811266,42.800021 77.7364087,43.2440826 C78.0912805,43.6883902 78.2693318,44.2988928 78.2693318,45.0762877 L78.2693318,50.2384824" id="path18" fill="#283CA7" fill-rule="nonzero" transform="translate(77.336922, 49.056113) scale(-1, 1) rotate(-180.000000) translate(-77.336922, -49.056113) "></path>
                        <path d="M65.3741526,45.859262 C65.2184603,45.4929235 65.0631782,45.1649441 64.9081013,44.8765748 C64.752409,44.588103 64.5801013,44.3105441 64.3913834,44.0441236 C64.2028706,43.7776826 63.9862552,43.4890672 63.7421526,43.1780928 C62.9645116,42.2458057 62.032204,41.5297031 60.9448194,41.0299288 C59.8568194,40.5305031 58.6574348,40.2808211 57.3476912,40.2808211 C56.103999,40.2808211 54.9442041,40.4974775 53.8676913,40.930257 C52.7905632,41.3635083 51.8578452,41.9628723 51.0697427,42.7290467 C50.2816401,43.4946056 49.6658453,44.3989954 49.2215376,45.4429953 C48.7768197,46.4861133 48.5552812,47.6185645 48.5552812,48.8403491 C48.5552812,50.0830568 48.7889222,51.2490054 49.2549735,52.3369849 C49.7212299,53.4244926 50.3649222,54.3737643 51.1864606,55.184431 C52.0079991,55.9948925 52.9682042,56.6332515 54.0672811,57.0993027 C55.1661528,57.5659694 56.3485118,57.7985848 57.6143579,57.7985848 C58.7243066,57.7985848 59.745845,57.6324309 60.6781527,57.2995079 C61.6104604,56.9661745 62.4319988,56.488431 63.142768,55.8675079 C63.8529219,55.2451489 64.4358962,54.4905849 64.8910757,53.6026874 C65.3462552,52.7143182 65.6406141,51.7260926 65.7739474,50.6385849 L54.7499477,50.6385849 C54.7718964,46.4861133 56.6260502,44.410462 60.3117937,44.410462 C61.7107681,44.410462 62.8982552,44.7542979 63.875486,45.4429953 C64.2527167,45.6870569 64.5522039,45.9366569 64.774768,46.1926774 C64.9963064,46.4471594 65.2744603,46.830503 65.6071782,47.3410671 L65.9072808,47.2083081 C65.7070757,46.6752825 65.5294346,46.2256004 65.3741526,45.859262 M59.8787681,52.0145439 C59.8787681,52.2836105 59.8732296,52.5241644 59.8621527,52.7377849 C59.8506655,52.9509336 59.8397938,53.1475695 59.8287168,53.3267285 C59.817845,53.5058874 59.8008194,53.7075079 59.7788707,53.9325746 C59.6900502,55.1438156 59.4678963,56.0248412 59.1130245,56.5747899 C58.7577425,57.123713 58.2471784,57.3994053 57.580922,57.3994053 C56.6486143,57.3994053 55.9433836,56.8547899 55.4662554,55.7667899 C54.9885118,54.6781746 54.7499477,53.1015592 54.7499477,51.0383388 L59.8787681,51.0383388 L59.8787681,52.0145439" id="path16" fill="#283CA7" fill-rule="nonzero" transform="translate(57.231281, 49.039703) scale(-1, 1) rotate(-180.000000) translate(-57.231281, -49.039703) "></path>
                        <path d="M52.6170247,57.532554 C52.339076,57.3545027 52.0451273,57.0773745 51.7347683,56.7001438 C51.3124093,56.1889643 50.8853324,55.5840412 50.4521017,54.8849643 C50.0192812,54.1850669 49.636512,53.4695797 49.3031786,52.7368618 L41.1768199,35.1517956 L34.9157944,49.5396311 L27.8221946,35.1517956 L19.8621742,52.8031182 C19.5511999,53.5134772 19.1738871,54.2351182 18.729723,54.9682464 C18.2854974,55.7009643 17.8747692,56.2888617 17.4974358,56.7329643 C17.1865435,57.1104002 16.8531241,57.3938873 16.4982379,57.5824002 C16.1429497,57.7707078 15.6433497,57.9542976 15,58.1319386 L15,58.4648617 L27.2222766,58.4648617 L27.2222766,58.1319386 C26.7336612,57.9323489 26.3842869,57.7042463 26.1731484,57.449272 C25.962092,57.1936822 25.8567382,56.8548104 25.8567382,56.4336822 C25.8567382,56.0781951 25.9570459,55.6675284 26.1567382,55.201272 L31.3522457,43.2780108 L34.7491277,50.1055593 L32.7841431,54.7017848 C32.2067278,56.0336822 31.6627483,56.9551181 31.1521637,57.4662976 C30.9744406,57.6433232 30.7693124,57.782195 30.5362253,57.8818873 C30.3031996,57.982195 29.9752407,58.0656822 29.5535176,58.1319386 L29.5535176,58.4648617 L41.6100506,58.4648617 L41.6100506,58.1319386 C40.4112814,57.9323489 39.8114866,57.2880412 39.8114866,56.2004515 C39.8114866,55.9339899 39.8722045,55.567631 39.9944609,55.1009643 C40.1163071,54.6349131 40.2779481,54.1571695 40.477743,53.6691695 L44.6406146,43.7776005 L45.4730249,45.4764723 C46.3171274,47.2298466 46.9663582,48.8508311 47.4215377,50.338708 C47.8763069,51.8260926 48.1044094,53.1366567 48.1044094,54.2685541 C48.1044094,55.5561438 47.8262556,56.5444515 47.2717941,57.2326566 C47.0715889,57.4767591 46.8496402,57.6599386 46.6055377,57.782195 C46.3610249,57.903836 45.9946659,58.0207591 45.5064608,58.1319386 L45.5064608,58.4648617 L53.8658452,58.4648617 L53.8658452,58.1319386 C53.3107683,57.9099899 52.8945632,57.7097848 52.6170247,57.532554" id="path14" fill="#283CA7" fill-rule="nonzero" transform="translate(34.432923, 46.808329) scale(-1, 1) rotate(-180.000000) translate(-34.432923, -46.808329) "></path>
                    </g>
                </g>
            </g>
        </g>
    </g>
</svg>